idx,note,channel,velocity,pretty_start,pretty_end,mido_start,mido_end,diff_start,diff_end
0,57,0,127,0.000000,2.000000,0.000000,2.823528,0.000000,-0.823528
1,64,0,127,0.000000,2.000000,0.000000,2.823528,0.000000,-0.823528
2,52,0,95,0.125000,0.250000,0.176471,0.352941,-0.051471,-0.102941
3,60,0,95,0.250000,0.375000,0.352941,0.529412,-0.102941,-0.154412
4,69,0,127,0.375000,0.500000,0.529412,0.705882,-0.154412,-0.205882
5,79,0,127,0.500000,0.750000,0.705882,1.058823,-0.205882,-0.308823
6,60,0,95,0.750000,1.000000,1.058823,1.411764,-0.308823,-0.411764
7,65,0,95,0.750000,1.000000,1.058823,1.411764,-0.308823,-0.411764
8,72,0,127,0.750000,1.250000,1.058823,1.764705,-0.308823,-0.514705
9,53,0,95,1.000000,2.000000,1.411764,2.823528,-0.411764,-0.823528
10,48,0,95,1.125000,1.250000,1.588234,1.764705,-0.463234,-0.514705
11,60,0,95,1.250000,1.875000,1.764705,2.647057,-0.514705,-0.772057
12,65,0,127,1.375000,1.500000,1.941175,2.117646,-0.566175,-0.617646
13,72,0,127,1.500000,1.750000,2.117646,2.470587,-0.617646,-0.720587
14,79,0,127,1.750000,3.000000,2.470587,4.235292,-0.720587,-1.235292
15,55,0,95,2.000000,2.375000,2.823528,3.352940,-0.823528,-0.977940
16,50,0,73,2.125000,2.250000,2.999998,3.176469,-0.874998,-0.926469
17,55,0,79,2.250000,2.375000,3.176469,3.882351,-0.926469,-1.507351
18,67,0,127,2.375000,2.500000,3.352940,3.529410,-0.977940,-1.029410
19,72,0,127,2.500000,2.750000,3.529410,3.882351,-1.029410,-1.132351
20,79,0,127,2.750000,3.000000,3.882351,4.941174,-1.132351,-1.941174
21,60,0,95,2.750000,3.500000,3.882351,5.294115,-1.132351,-1.794115
22,48,0,95,2.750000,3.750000,3.882351,5.294115,-1.132351,-1.544115
23,55,0,95,3.000000,3.125000,4.235292,4.411763,-1.235292,-1.286763
24,60,0,95,3.125000,3.500000,4.411763,5.294115,-1.286763,-1.794115
25,64,0,127,3.250000,3.750000,4.588233,5.294115,-1.338233,-1.544115
26,62,0,82,3.500000,3.750000,4.941174,5.294115,-1.441174,-1.544115
27,60,0,95,3.750000,4.000000,5.294115,5.647056,-1.544115,-1.647056
28,79,0,127,3.750000,4.000000,5.294115,5.647056,-1.544115,-1.647056
29,57,0,127,4.000000,5.000000,5.647056,7.058820,-1.647056,-2.058820
30,64,0,127,4.000000,5.000000,5.647056,7.058820,-1.647056,-2.058820
31,52,0,95,4.125000,4.250000,5.823526,5.999997,-1.698526,-1.749997
32,60,0,95,4.250000,4.375000,5.999997,6.176468,-1.749997,-1.801468
33,69,0,127,4.375000,4.500000,6.176468,6.352938,-1.801468,-1.852938
34,79,0,127,4.500000,4.750000,6.352938,6.705879,-1.852938,-1.955879
35,53,0,95,4.750000,5.000000,6.705879,7.058820,-1.955879,-2.058820
36,65,0,95,4.750000,5.000000,6.705879,7.058820,-1.955879,-2.058820
37,72,0,127,4.750000,5.250000,6.705879,7.411761,-1.955879,-2.161761
38,53,0,95,5.000000,5.750000,7.058820,8.117643,-2.058820,-2.367643
39,48,0,95,5.125000,5.250000,7.235290,7.411761,-2.110290,-2.161761
40,48,0,95,5.250000,5.750000,7.411761,8.117643,-2.161761,-2.367643
41,53,0,95,5.250000,5.750000,7.411761,8.470584,-2.161761,-2.720584
42,60,0,127,5.375000,5.500000,7.588232,7.764702,-2.213232,-2.264702
43,65,0,127,5.375000,5.500000,7.588232,7.764702,-2.213232,-2.264702
44,67,0,127,5.500000,5.750000,7.764702,8.117643,-2.264702,-2.367643
45,72,0,127,5.500000,5.750000,7.764702,8.117643,-2.264702,-2.367643
46,62,0,127,5.750000,5.875000,8.117643,8.294113,-2.367643,-2.419113
47,55,0,95,5.750000,6.375000,8.117643,8.999996,-2.367643,-2.624996
48,48,0,95,5.750000,8.000000,8.117643,11.294112,-2.367643,-3.294112
49,60,0,127,5.875000,6.250000,8.294113,8.823525,-2.419113,-2.573525
50,50,0,95,6.125000,6.250000,8.647054,8.823525,-2.522054,-2.573525
51,55,0,95,6.250000,6.375000,8.823525,8.999996,-2.573525,-2.624996
52,65,0,77,6.250000,6.375000,8.823525,10.235289,-2.573525,-3.860289
53,67,0,127,6.375000,6.500000,8.999996,9.176466,-2.624996,-2.676466
54,72,0,127,6.500000,6.750000,9.176466,9.529407,-2.676466,-2.779407
55,50,0,95,6.625000,6.875000,9.352937,9.705877,-2.727937,-2.830877
56,71,0,127,6.750000,7.000000,9.529407,9.882348,-2.779407,-2.882348
57,59,0,95,6.875000,7.125000,9.705877,10.058818,-2.830877,-2.933818
58,67,0,127,7.000000,7.250000,9.882348,10.235289,-2.882348,-2.985289
59,55,0,95,7.125000,7.250000,10.058818,10.764701,-2.933818,-3.514701
60,62,0,127,7.250000,7.375000,10.235289,10.411760,-2.985289,-3.036760
61,60,0,127,7.375000,7.625000,10.411760,10.764701,-3.036760,-3.139701
62,55,0,95,7.500000,7.625000,10.588230,11.294112,-3.088230,-3.669112
63,50,0,95,7.625000,7.750000,10.764701,10.941171,-3.139701,-3.191171
64,67,0,127,7.625000,8.000000,10.764701,11.294112,-3.139701,-3.294112
65,59,0,95,7.750000,7.875000,10.941171,11.117641,-3.191171,-3.242641
66,55,0,95,7.875000,8.000000,11.117641,11.294112,-3.242641,-3.294112
67,57,0,127,8.000000,10.000000,11.294112,14.117640,-3.294112,-4.117640
68,64,0,127,8.000000,10.000000,11.294112,14.117640,-3.294112,-4.117640
69,52,0,95,8.125000,8.250000,11.470583,11.647053,-3.345583,-3.397053
70,60,0,95,8.250000,8.375000,11.647053,11.823524,-3.397053,-3.448524
71,69,0,127,8.375000,8.500000,11.823524,11.999994,-3.448524,-3.499994
72,67,0,127,8.500000,8.750000,11.999994,12.352935,-3.499994,-3.602935
73,79,0,127,8.500000,8.750000,11.999994,12.352935,-3.499994,-3.602935
74,60,0,95,8.750000,9.000000,12.352935,12.705876,-3.602935,-3.705876
75,65,0,95,8.750000,9.000000,12.352935,12.705876,-3.602935,-3.705876
76,72,0,127,8.750000,9.250000,12.352935,13.058817,-3.602935,-3.808817
77,53,0,95,9.000000,10.000000,12.705876,14.117640,-3.705876,-4.117640
78,48,0,95,9.125000,9.250000,12.882347,13.058817,-3.757347,-3.808817
79,60,0,95,9.250000,9.375000,13.058817,13.235288,-3.808817,-3.860288
80,67,0,70,9.250000,9.500000,13.058817,13.411758,-3.808817,-3.911758
81,65,0,95,9.375000,9.500000,13.235288,13.411758,-3.860288,-3.911758
82,72,0,95,9.500000,9.750000,13.411758,13.764699,-3.911758,-4.014699
83,79,0,127,9.500000,10.000000,13.411758,14.117640,-3.911758,-4.117640
84,79,0,95,9.750000,10.000000,13.764699,14.117640,-4.014699,-4.117640
85,64,0,73,10.000000,10.250000,14.117640,14.470581,-4.117640,-4.220581
86,55,0,95,10.000000,10.375000,14.117640,14.647051,-4.117640,-4.272051
87,50,0,95,10.125000,10.250000,14.294111,14.470581,-4.169111,-4.220581
88,55,0,95,10.250000,10.375000,14.470581,14.823522,-4.220581,-4.448522
89,72,0,127,10.250000,10.500000,14.470581,15.529404,-4.220581,-5.029404
90,67,0,95,10.375000,10.500000,14.647051,14.823522,-4.272051,-4.323522
91,72,0,95,10.500000,10.750000,14.823522,15.176463,-4.323522,-4.426463
92,79,0,127,10.500000,11.000000,14.823522,15.529404,-4.323522,-4.529404
93,79,0,95,10.750000,11.000000,15.176463,16.235286,-4.426463,-5.235286
94,48,0,95,11.000000,12.000000,15.529404,16.941168,-4.529404,-4.941168
95,60,0,95,11.000000,12.000000,15.529404,16.941168,-4.529404,-4.941168
96,55,0,95,11.125000,11.250000,15.705875,15.882345,-4.580875,-4.632345
97,64,0,95,11.250000,11.500000,15.882345,16.235286,-4.632345,-4.735286
98,62,0,95,11.500000,11.750000,16.235286,16.588227,-4.735286,-4.838227
99,72,0,127,11.500000,11.750000,16.235286,16.588227,-4.735286,-4.838227
100,60,0,95,11.750000,12.000000,16.588227,16.941168,-4.838227,-4.941168
101,79,0,127,11.750000,12.000000,16.588227,16.941168,-4.838227,-4.941168
102,57,0,127,12.000000,13.000000,16.941168,18.352932,-4.941168,-5.352932
103,64,0,127,12.000000,13.000000,16.941168,18.352932,-4.941168,-5.352932
104,52,0,95,12.125000,12.250000,17.117639,17.294109,-4.992639,-5.044109
105,60,0,95,12.250000,12.375000,17.294109,17.470579,-5.044109,-5.095579
106,69,0,127,12.375000,12.500000,17.470579,17.647050,-5.095579,-5.147050
107,67,0,127,12.500000,12.750000,17.647050,17.999991,-5.147050,-5.249991
108,79,0,127,12.500000,12.750000,17.647050,17.999991,-5.147050,-5.249991
109,60,0,95,12.750000,13.000000,17.999991,18.352932,-5.249991,-5.352932
110,65,0,95,12.750000,13.000000,17.999991,18.352932,-5.249991,-5.352932
111,72,0,127,12.750000,13.250000,17.999991,18.705873,-5.249991,-5.455873
112,53,0,95,13.000000,14.000000,18.352932,19.764696,-5.352932,-5.764696
113,48,0,95,13.125000,13.250000,18.529402,18.705873,-5.404402,-5.455873
114,60,0,95,13.250000,13.375000,18.705873,18.882344,-5.455873,-5.507344
115,67,0,69,13.250000,13.500000,18.705873,19.058814,-5.455873,-5.558814
116,65,0,95,13.375000,13.500000,18.882344,19.058814,-5.507344,-5.558814
117,67,0,95,13.500000,13.750000,19.058814,19.411755,-5.558814,-5.661755
118,79,0,127,13.500000,14.000000,19.058814,19.764696,-5.558814,-5.764696
119,62,0,127,13.750000,13.875000,19.411755,19.588226,-5.661755,-5.713226
120,55,0,95,13.750000,15.250000,19.411755,21.529401,-5.661755,-6.279401
121,48,0,95,13.750000,16.000000,19.411755,22.588224,-5.661755,-6.588224
122,60,0,127,13.875000,14.375000,19.588226,20.294107,-5.713226,-5.919107
123,50,0,95,14.125000,14.250000,19.941167,20.117637,-5.816167,-5.867637
124,55,0,95,14.250000,15.250000,20.117637,22.588224,-5.867637,-7.338224
125,67,0,127,14.375000,14.500000,20.294107,20.470578,-5.919107,-5.970578
126,76,0,124,14.500000,14.562500,20.470578,20.558813,-5.970578,-5.996313
127,77,0,122,14.562500,14.625000,20.558813,20.647049,-5.996313,-6.022049
128,76,0,120,14.625000,14.750000,20.647049,20.823519,-6.022049,-6.073519
129,74,0,116,14.750000,14.875000,20.823519,20.999990,-6.073519,-6.124990
130,72,0,112,14.875000,15.000000,20.999990,21.176460,-6.124990,-6.176460
131,74,0,109,15.000000,15.062500,21.176460,21.264695,-6.176460,-6.202195
132,76,0,107,15.062500,15.125000,21.264695,21.352930,-6.202195,-6.227930
133,72,0,105,15.125000,15.187500,21.352930,21.441166,-6.227930,-6.253666
134,74,0,103,15.187500,15.250000,21.441166,21.529401,-6.253666,-6.279401
135,72,0,101,15.250000,15.312500,21.529401,21.617636,-6.279401,-6.305136
136,67,0,99,15.312500,15.375000,21.617636,21.705872,-6.305136,-6.330872
137,65,0,97,15.375000,15.437500,21.705872,21.794107,-6.330872,-6.356607
138,64,0,95,15.437500,15.500000,21.794107,21.882342,-6.356607,-6.382342
139,50,0,95,15.500000,15.625000,21.882342,22.058812,-6.382342,-6.433812
140,67,0,111,15.500000,15.625000,21.882342,22.058812,-6.382342,-6.433812
141,72,0,127,15.750000,15.875000,22.235283,22.411753,-6.485283,-6.536753
142,48,0,95,15.875000,16.000000,22.411753,22.588224,-6.536753,-6.588224
143,74,0,127,16.000000,16.250000,22.588224,22.941165,-6.588224,-6.691165
144,67,0,127,16.000000,17.000000,22.588224,23.999988,-6.588224,-6.999988
145,72,0,127,16.250000,16.500000,22.941165,23.294106,-6.691165,-6.794106
146,55,0,95,16.375000,16.625000,23.117635,23.470576,-6.742635,-6.845576
147,60,0,95,16.375000,16.625000,23.117635,23.470576,-6.742635,-6.845576
148,72,0,127,16.500000,16.750000,23.294106,23.647047,-6.794106,-6.897047
149,48,0,95,16.750000,17.000000,23.647047,23.999988,-6.897047,-6.999988
150,72,0,127,16.750000,17.000000,23.647047,23.999988,-6.897047,-6.999988
151,76,0,127,17.000000,17.250000,23.999988,24.352929,-6.999988,-7.102929
152,67,0,127,17.000000,18.000000,23.999988,25.411752,-6.999988,-7.411752
153,72,0,127,17.250000,17.500000,24.352929,24.705870,-7.102929,-7.205870
154,55,0,95,17.250000,17.625000,24.352929,24.882341,-7.102929,-7.257341
155,60,0,95,17.250000,17.625000,24.352929,24.882341,-7.102929,-7.257341
156,72,0,127,17.500000,17.750000,24.705870,25.058811,-7.205870,-7.308811
157,48,0,95,17.625000,17.750000,24.882341,25.058811,-7.257341,-7.308811
158,52,0,95,17.750000,18.000000,25.058811,25.411752,-7.308811,-7.411752
159,55,0,95,17.750000,18.000000,25.058811,25.411752,-7.308811,-7.411752
160,60,0,95,17.750000,18.000000,25.058811,25.411752,-7.308811,-7.411752
161,72,0,127,17.750000,18.000000,25.058811,25.411752,-7.308811,-7.411752
162,74,0,127,18.000000,18.250000,25.411752,25.764693,-7.411752,-7.514693
163,67,0,127,18.000000,19.000000,25.411752,26.823516,-7.411752,-7.823516
164,50,0,95,18.250000,18.375000,25.764693,25.941163,-7.514693,-7.566163
165,74,0,127,18.250000,18.375000,25.764693,25.941163,-7.514693,-7.566163
166,76,0,127,18.375000,18.500000,25.941163,26.117634,-7.566163,-7.617634
167,55,0,95,18.375000,18.625000,25.941163,26.294104,-7.566163,-7.669104
168,60,0,95,18.375000,18.625000,25.941163,26.294104,-7.566163,-7.669104
169,74,0,127,18.500000,18.750000,26.117634,26.470575,-7.617634,-7.720575
170,50,0,95,18.750000,19.000000,26.470575,26.823516,-7.720575,-7.823516
171,72,0,127,18.750000,19.000000,26.470575,26.823516,-7.720575,-7.823516
172,48,0,95,19.000000,19.500000,26.823516,27.529398,-7.823516,-8.029398
173,76,0,127,19.000000,19.500000,26.823516,27.529398,-7.823516,-8.029398
174,67,0,127,19.000000,19.750000,26.823516,27.882339,-7.823516,-8.132339
175,64,0,127,19.000000,20.000000,26.823516,28.235280,-7.823516,-8.235280
176,55,0,95,19.250000,19.500000,27.176457,27.529398,-7.926457,-8.029398
177,60,0,95,19.250000,19.500000,27.176457,27.529398,-7.926457,-8.029398
178,67,0,127,19.500000,19.750000,27.529398,28.235280,-8.029398,-8.485280
179,55,0,95,19.750000,20.000000,27.882339,28.235280,-8.132339,-8.235280
180,59,0,95,19.750000,20.000000,27.882339,28.235280,-8.132339,-8.235280
181,72,0,127,19.750000,20.000000,27.882339,28.235280,-8.132339,-8.235280
182,74,0,127,20.000000,20.250000,28.235280,28.588221,-8.235280,-8.338221
183,67,0,127,20.000000,21.000000,28.235280,29.647044,-8.235280,-8.647044
184,72,0,127,20.250000,20.500000,28.588221,28.941162,-8.338221,-8.441162
185,55,0,95,20.375000,20.625000,28.764692,29.117632,-8.389692,-8.492632
186,60,0,95,20.375000,20.625000,28.764692,29.117632,-8.389692,-8.492632
187,72,0,127,20.500000,20.750000,28.941162,29.294103,-8.441162,-8.544103
188,74,0,127,20.750000,20.875000,29.294103,29.470574,-8.544103,-8.595574
189,48,0,95,20.750000,21.000000,29.294103,29.647044,-8.544103,-8.647044
190,76,0,127,20.875000,21.000000,29.470574,29.647044,-8.595574,-8.647044
191,74,0,127,21.000000,21.250000,29.647044,29.999985,-8.647044,-8.749985
192,67,0,127,21.000000,22.000000,29.647044,31.058808,-8.647044,-9.058808
193,72,0,127,21.250000,21.500000,29.999985,30.352926,-8.749985,-8.852926
194,55,0,95,21.250000,21.625000,29.999985,30.529397,-8.749985,-8.904397
195,60,0,95,21.250000,21.625000,29.999985,30.529397,-8.749985,-8.904397
196,72,0,127,21.500000,21.875000,30.352926,30.882337,-8.852926,-9.007337
197,48,0,95,21.625000,21.750000,30.529397,30.705867,-8.904397,-8.955867
198,52,0,95,21.750000,22.000000,30.705867,31.058808,-8.955867,-9.058808
199,55,0,95,21.750000,22.000000,30.705867,31.058808,-8.955867,-9.058808
200,60,0,95,21.750000,22.000000,30.705867,31.058808,-8.955867,-9.058808
201,72,0,127,21.875000,22.000000,30.882337,31.058808,-9.007337,-9.058808
202,74,0,127,22.000000,22.250000,31.058808,31.411749,-9.058808,-9.161749
203,67,0,127,22.000000,23.000000,31.058808,32.470572,-9.058808,-9.470572
204,71,0,127,22.000000,23.000000,31.058808,32.470572,-9.058808,-9.470572
205,50,0,95,22.125000,22.250000,31.235278,31.411749,-9.110278,-9.161749
206,55,0,95,22.250000,22.375000,31.411749,31.588220,-9.161749,-9.213220
207,76,0,127,22.250000,22.500000,31.411749,31.764690,-9.161749,-9.264690
208,60,0,95,22.375000,22.500000,31.588220,31.764690,-9.213220,-9.264690
209,55,0,95,22.500000,22.625000,31.764690,31.941160,-9.264690,-9.316160
210,74,0,127,22.500000,22.750000,31.764690,32.117631,-9.264690,-9.367631
211,50,0,95,22.625000,22.750000,31.941160,32.117631,-9.316160,-9.367631
212,48,0,95,22.750000,22.875000,32.117631,32.294101,-9.367631,-9.419101
213,72,0,127,22.750000,23.000000,32.117631,32.470572,-9.367631,-9.470572
214,72,0,127,23.000000,23.500000,32.470572,33.176454,-9.470572,-9.676454
215,67,0,127,23.000000,23.750000,32.470572,33.529395,-9.470572,-9.779395
216,48,0,95,23.000000,24.000000,32.470572,33.882336,-9.470572,-9.882336
217,64,0,127,23.000000,24.000000,32.470572,33.882336,-9.470572,-9.882336
218,67,0,127,23.500000,23.750000,33.176454,33.882336,-9.676454,-10.132336
219,72,0,127,23.750000,24.000000,33.529395,33.882336,-9.779395,-9.882336
220,48,0,95,23.875000,24.000000,33.705866,33.882336,-9.830866,-9.882336
221,74,0,127,24.000000,24.250000,33.882336,34.235277,-9.882336,-9.985277
222,62,0,127,24.000000,25.000000,33.882336,35.294100,-9.882336,-10.294100
223,67,0,127,24.052083,25.000000,33.955865,35.294100,-9.903782,-10.294100
224,72,0,127,24.250000,24.500000,34.235277,34.588218,-9.985277,-10.088218
225,55,0,95,24.375000,24.625000,34.411747,34.764688,-10.036747,-10.139688
226,60,0,95,24.375000,24.625000,34.411747,34.764688,-10.036747,-10.139688
227,72,0,127,24.500000,24.750000,34.588218,34.941159,-10.088218,-10.191159
228,48,0,95,24.750000,25.000000,34.941159,35.294100,-10.191159,-10.294100
229,76,0,127,24.750000,25.000000,34.941159,35.294100,-10.191159,-10.294100
230,74,0,127,25.000000,25.250000,35.294100,35.647041,-10.294100,-10.397041
231,67,0,127,25.000000,26.000000,35.294100,36.705864,-10.294100,-10.705864
232,72,0,127,25.250000,25.500000,35.647041,35.999982,-10.397041,-10.499982
233,55,0,95,25.250000,25.625000,35.647041,36.176453,-10.397041,-10.551453
234,60,0,95,25.250000,25.625000,35.647041,36.176453,-10.397041,-10.551453
235,72,0,127,25.500000,26.000000,35.999982,36.705864,-10.499982,-10.705864
236,48,0,95,25.625000,25.750000,36.176453,36.352923,-10.551453,-10.602923
237,52,0,95,25.750000,26.000000,36.352923,36.705864,-10.602923,-10.705864
238,55,0,95,25.750000,26.000000,36.352923,36.705864,-10.602923,-10.705864
239,60,0,95,25.750000,26.000000,36.352923,36.705864,-10.602923,-10.705864
240,74,0,127,26.000000,26.250000,36.705864,37.058805,-10.705864,-10.808805
241,67,0,127,26.000000,27.000000,36.705864,38.117628,-10.705864,-11.117628
242,50,0,95,26.250000,26.375000,37.058805,37.235276,-10.808805,-10.860276
243,74,0,127,26.250000,26.375000,37.058805,37.235276,-10.808805,-10.860276
244,76,0,127,26.375000,26.500000,37.235276,37.411746,-10.860276,-10.911746
245,55,0,95,26.375000,26.625000,37.235276,37.588217,-10.860276,-10.963217
246,60,0,95,26.375000,26.625000,37.235276,37.588217,-10.860276,-10.963217
247,74,0,127,26.500000,26.750000,37.411746,37.764687,-10.911746,-11.014687
248,50,0,95,26.750000,27.000000,37.764687,38.117628,-11.014687,-11.117628
249,72,0,127,26.750000,27.000000,37.764687,38.117628,-11.014687,-11.117628
250,48,0,95,27.000000,27.500000,38.117628,38.823510,-11.117628,-11.323510
251,76,0,127,27.000000,27.500000,38.117628,38.823510,-11.117628,-11.323510
252,67,0,127,27.000000,27.750000,38.117628,39.176451,-11.117628,-11.426451
253,64,0,127,27.000000,28.000000,38.117628,39.529392,-11.117628,-11.529392
254,55,0,95,27.250000,27.500000,38.470569,38.823510,-11.220569,-11.323510
255,60,0,95,27.250000,27.500000,38.470569,38.823510,-11.220569,-11.323510
256,67,0,127,27.500000,27.750000,38.823510,39.529392,-11.323510,-11.779392
257,55,0,95,27.750000,28.000000,39.176451,39.529392,-11.426451,-11.529392
258,59,0,95,27.750000,28.000000,39.176451,39.529392,-11.426451,-11.529392
259,72,0,127,27.750000,28.000000,39.176451,39.529392,-11.426451,-11.529392
260,74,0,127,28.000000,28.250000,39.529392,39.882333,-11.529392,-11.632333
261,62,0,127,28.000000,29.000000,39.529392,40.941156,-11.529392,-11.941156
262,67,0,127,28.052083,29.000000,39.602921,40.941156,-11.550838,-11.941156
263,72,0,127,28.250000,28.500000,39.882333,40.235274,-11.632333,-11.735274
264,55,0,95,28.375000,28.625000,40.058804,40.411744,-11.683804,-11.786744
265,60,0,95,28.375000,28.625000,40.058804,40.411744,-11.683804,-11.786744
266,72,0,127,28.500000,28.750000,40.235274,40.588215,-11.735274,-11.838215
267,48,0,95,28.750000,29.000000,40.588215,40.941156,-11.838215,-11.941156
268,76,0,127,28.750000,29.000000,40.588215,40.941156,-11.838215,-11.941156
269,74,0,127,29.000000,29.250000,40.941156,41.294097,-11.941156,-12.044097
270,67,0,127,29.000000,30.000000,40.941156,42.352920,-11.941156,-12.352920
271,72,0,127,29.250000,29.500000,41.294097,41.647038,-12.044097,-12.147038
272,55,0,95,29.250000,29.625000,41.294097,41.823509,-12.044097,-12.198509
273,60,0,95,29.250000,29.625000,41.294097,41.823509,-12.044097,-12.198509
274,72,0,127,29.500000,30.000000,41.647038,42.352920,-12.147038,-12.352920
275,48,0,95,29.625000,29.750000,41.823509,41.999979,-12.198509,-12.249979
276,52,0,95,29.750000,30.000000,41.999979,42.352920,-12.249979,-12.352920
277,55,0,95,29.750000,30.000000,41.999979,42.352920,-12.249979,-12.352920
278,60,0,95,29.750000,30.000000,41.999979,42.352920,-12.249979,-12.352920
279,74,0,127,30.000000,30.250000,42.352920,42.705861,-12.352920,-12.455861
280,67,0,127,30.000000,31.000000,42.352920,43.764684,-12.352920,-12.764684
281,50,0,95,30.125000,30.250000,42.529390,42.705861,-12.404390,-12.455861
282,55,0,95,30.250000,30.375000,42.705861,42.882331,-12.455861,-12.507331
283,76,0,127,30.250000,30.500000,42.705861,43.058802,-12.455861,-12.558802
284,60,0,95,30.375000,30.500000,42.882331,43.058802,-12.507331,-12.558802
285,55,0,95,30.500000,30.625000,43.058802,43.235273,-12.558802,-12.610273
286,74,0,127,30.500000,30.750000,43.058802,43.411743,-12.558802,-12.661743
287,50,0,95,30.625000,30.750000,43.235273,43.411743,-12.610273,-12.661743
288,48,0,95,30.750000,30.875000,43.411743,43.588214,-12.661743,-12.713214
289,72,0,127,30.750000,31.000000,43.411743,43.764684,-12.661743,-12.764684
290,72,0,127,31.000000,31.500000,43.764684,44.470566,-12.764684,-12.970566
291,48,0,95,31.000000,32.000000,43.764684,45.176448,-12.764684,-13.176448
292,60,0,127,31.000000,32.000000,43.764684,45.176448,-12.764684,-13.176448
293,67,0,127,31.000000,32.000000,43.764684,45.176448,-12.764684,-13.176448
294,74,0,127,31.500000,31.750000,44.470566,44.823507,-12.970566,-13.073507
295,48,0,95,31.750000,32.000000,44.823507,45.176448,-13.073507,-13.176448
296,72,0,127,31.750000,32.000000,44.823507,45.176448,-13.073507,-13.176448
297,72,0,127,32.000000,32.250000,45.176448,45.529389,-13.176448,-13.279389
298,79,0,127,32.000000,32.250000,45.176448,45.529389,-13.176448,-13.279389
299,48,0,95,32.125000,32.250000,45.352919,45.529389,-13.227919,-13.279389
300,52,0,95,32.250000,32.375000,45.529389,45.705860,-13.279389,-13.330860
301,64,0,127,32.250000,32.500000,45.529389,45.882330,-13.279389,-13.382330
302,72,0,127,32.250000,32.500000,45.529389,45.882330,-13.279389,-13.382330
303,55,0,95,32.375000,32.500000,45.705860,45.882330,-13.330860,-13.382330
304,48,0,95,32.500000,32.625000,45.882330,46.058800,-13.382330,-13.433800
305,72,0,127,32.500000,32.750000,45.882330,46.235271,-13.382330,-13.485271
306,67,0,127,32.500000,33.000000,45.882330,46.588212,-13.382330,-13.588212
307,50,0,95,32.750000,32.875000,46.235271,46.411741,-13.485271,-13.536741
308,72,0,127,32.750000,32.875000,46.235271,46.411741,-13.485271,-13.536741
309,48,0,95,32.875000,33.000000,46.411741,46.588212,-13.536741,-13.588212
310,79,0,127,32.875000,33.000000,46.411741,46.588212,-13.536741,-13.588212
311,67,0,127,33.000000,33.250000,46.588212,46.941153,-13.588212,-13.691153
312,74,0,127,33.000000,33.250000,46.588212,46.941153,-13.588212,-13.691153
313,48,0,95,33.125000,33.250000,46.764682,46.941153,-13.639682,-13.691153
314,52,0,95,33.250000,33.375000,46.941153,47.117624,-13.691153,-13.742624
315,64,0,127,33.250000,33.500000,46.941153,47.294094,-13.691153,-13.794094
316,72,0,127,33.250000,33.500000,46.941153,47.294094,-13.691153,-13.794094
317,55,0,95,33.375000,33.500000,47.117624,47.294094,-13.742624,-13.794094
318,48,0,95,33.500000,33.625000,47.294094,47.470565,-13.794094,-13.845565
319,67,0,127,33.500000,34.000000,47.294094,47.999976,-13.794094,-13.999976
320,72,0,127,33.500000,34.000000,47.294094,47.999976,-13.794094,-13.999976
321,50,0,95,33.750000,33.875000,47.647035,47.823506,-13.897035,-13.948506
322,48,0,95,33.875000,34.000000,47.823506,47.999976,-13.948506,-13.999976
323,74,0,127,34.000000,34.250000,47.999976,48.352917,-13.999976,-14.102917
324,67,0,127,34.000000,34.500000,47.999976,48.705858,-13.999976,-14.205858
325,48,0,95,34.250000,34.375000,48.352917,48.529387,-14.102917,-14.154387
326,72,0,127,34.250000,34.375000,48.352917,48.529387,-14.102917,-14.154387
327,72,0,127,34.375000,34.500000,48.529387,48.705858,-14.154387,-14.205858
328,55,0,95,34.375000,34.750000,48.529387,49.058799,-14.154387,-14.308799
329,60,0,95,34.375000,34.750000,48.529387,49.058799,-14.154387,-14.308799
330,72,0,127,34.500000,34.750000,48.705858,49.058799,-14.205858,-14.308799
331,67,0,127,34.500000,35.000000,48.705858,49.411740,-14.205858,-14.411740
332,79,0,127,34.750000,35.000000,49.058799,49.411740,-14.308799,-14.411740
333,48,0,95,35.000000,35.500000,49.411740,50.117622,-14.411740,-14.617622
334,76,0,127,35.000000,35.500000,49.411740,50.117622,-14.411740,-14.617622
335,64,0,127,35.000000,36.000000,49.411740,50.823504,-14.411740,-14.823504
336,67,0,127,35.000000,36.000000,49.411740,50.823504,-14.411740,-14.823504
337,55,0,95,35.250000,35.500000,49.764681,50.117622,-14.514681,-14.617622
338,60,0,95,35.250000,35.500000,49.764681,50.117622,-14.514681,-14.617622
339,72,0,127,35.500000,35.750000,50.117622,50.470563,-14.617622,-14.720563
340,55,0,95,35.750000,36.000000,50.470563,50.823504,-14.720563,-14.823504
341,59,0,95,35.750000,36.000000,50.470563,50.823504,-14.720563,-14.823504
342,79,0,127,35.750000,36.000000,50.470563,50.823504,-14.720563,-14.823504
343,72,0,127,36.000000,36.250000,50.823504,51.176445,-14.823504,-14.926445
344,79,0,127,36.000000,36.250000,50.823504,51.176445,-14.823504,-14.926445
345,48,0,95,36.125000,36.250000,50.999975,51.176445,-14.874975,-14.926445
346,52,0,95,36.250000,36.375000,51.176445,51.352916,-14.926445,-14.977916
347,64,0,127,36.250000,36.500000,51.176445,51.529386,-14.926445,-15.029386
348,72,0,127,36.250000,36.500000,51.176445,51.529386,-14.926445,-15.029386
349,55,0,95,36.375000,36.500000,51.352916,51.529386,-14.977916,-15.029386
350,48,0,95,36.500000,36.625000,51.529386,51.705857,-15.029386,-15.080857
351,72,0,127,36.500000,36.750000,51.529386,51.882327,-15.029386,-15.132327
352,67,0,127,36.500000,37.000000,51.529386,52.235268,-15.029386,-15.235268
353,50,0,95,36.750000,36.875000,51.882327,52.058797,-15.132327,-15.183797
354,72,0,127,36.750000,36.875000,51.882327,52.058797,-15.132327,-15.183797
355,48,0,95,36.875000,37.000000,52.058797,52.235268,-15.183797,-15.235268
356,79,0,127,36.875000,37.000000,52.058797,52.235268,-15.183797,-15.235268
357,67,0,127,37.000000,37.250000,52.235268,52.588209,-15.235268,-15.338209
358,74,0,127,37.000000,37.250000,52.235268,52.588209,-15.235268,-15.338209
359,48,0,95,37.125000,37.250000,52.411738,52.588209,-15.286738,-15.338209
360,52,0,95,37.250000,37.375000,52.588209,52.764679,-15.338209,-15.389679
361,64,0,127,37.250000,37.500000,52.588209,52.941150,-15.338209,-15.441150
362,72,0,127,37.250000,37.500000,52.588209,52.941150,-15.338209,-15.441150
363,55,0,95,37.375000,37.500000,52.764679,52.941150,-15.389679,-15.441150
364,48,0,95,37.500000,37.625000,52.941150,53.117621,-15.441150,-15.492621
365,67,0,127,37.500000,38.000000,52.941150,53.647032,-15.441150,-15.647032
366,72,0,127,37.500000,38.000000,52.941150,53.647032,-15.441150,-15.647032
367,50,0,95,37.750000,37.875000,53.294091,53.470562,-15.544091,-15.595562
368,48,0,95,37.875000,38.000000,53.470562,53.647032,-15.595562,-15.647032
369,74,0,127,38.000000,38.250000,53.647032,53.999973,-15.647032,-15.749973
370,67,0,127,38.000000,39.000000,53.647032,55.058796,-15.647032,-16.058796
371,72,0,127,38.052083,38.375000,53.720561,54.176443,-15.668478,-15.801443
372,48,0,95,38.250000,38.375000,53.999973,54.176443,-15.749973,-15.801443
373,72,0,127,38.250000,38.375000,53.999973,54.352914,-15.749973,-15.977914
374,72,0,127,38.375000,38.500000,54.176443,54.705855,-15.801443,-16.205855
375,55,0,95,38.375000,38.750000,54.176443,54.705855,-15.801443,-15.955855
376,60,0,95,38.375000,38.750000,54.176443,54.705855,-15.801443,-15.955855
377,72,0,127,38.500000,38.750000,54.352914,55.058796,-15.852914,-16.308796
378,74,0,127,38.750000,39.000000,54.705855,55.058796,-15.955855,-16.058796
379,48,0,95,38.875000,39.125000,54.882326,55.235267,-16.007326,-16.110267
380,72,0,127,39.000000,39.500000,55.058796,55.764678,-16.058796,-16.264678
381,60,0,127,39.000000,40.000000,55.058796,56.470560,-16.058796,-16.470560
382,64,0,127,39.000000,40.000000,55.058796,56.470560,-16.058796,-16.470560
383,74,0,127,39.500000,39.750000,55.764678,56.117619,-16.264678,-16.367619
384,48,0,95,39.750000,39.875000,56.117619,56.294089,-16.367619,-16.419089
385,72,0,127,39.750000,40.000000,56.117619,56.470560,-16.367619,-16.470560
386,50,0,95,39.875000,40.000000,56.294089,56.470560,-16.419089,-16.470560
387,79,0,127,40.000000,40.250000,56.470560,56.823501,-16.470560,-16.573501
388,72,0,127,40.000000,40.500000,56.470560,57.176442,-16.470560,-16.676442
389,67,0,127,40.000000,41.000000,56.470560,57.882324,-16.470560,-16.882324
390,48,0,95,40.250000,40.375000,56.823501,56.999972,-16.573501,-16.624972
391,72,0,127,40.250000,40.500000,56.823501,57.529383,-16.573501,-17.029383
392,55,0,95,40.375000,40.750000,56.999972,57.529383,-16.624972,-16.779383
393,60,0,95,40.375000,40.750000,56.999972,57.529383,-16.624972,-16.779383
394,72,0,127,40.500000,40.750000,57.176442,57.705854,-16.676442,-16.955854
395,72,0,127,40.750000,40.875000,57.529383,57.882324,-16.779383,-17.007324
396,79,0,127,40.875000,41.000000,57.705854,57.882324,-16.830854,-16.882324
397,74,0,127,41.000000,41.250000,57.882324,58.235265,-16.882324,-16.985265
398,62,0,127,41.000000,42.000000,57.882324,59.294088,-16.882324,-17.294088
399,67,0,127,41.000000,42.000000,57.882324,59.294088,-16.882324,-17.294088
400,72,0,127,41.250000,41.500000,58.235265,58.588206,-16.985265,-17.088206
401,55,0,95,41.250000,41.625000,58.235265,58.764677,-16.985265,-17.139677
402,60,0,95,41.250000,41.625000,58.235265,58.764677,-16.985265,-17.139677
403,67,0,127,41.500000,42.000000,58.588206,59.294088,-17.088206,-17.294088
404,72,0,127,41.500000,42.000000,58.588206,59.294088,-17.088206,-17.294088
405,48,0,95,41.625000,41.750000,58.764677,58.941147,-17.139677,-17.191147
406,52,0,95,41.750000,42.000000,58.941147,59.294088,-17.191147,-17.294088
407,55,0,95,41.750000,42.000000,58.941147,59.294088,-17.191147,-17.294088
408,60,0,95,41.750000,42.000000,58.941147,59.294088,-17.191147,-17.294088
409,74,0,127,42.000000,42.250000,59.294088,59.647029,-17.294088,-17.397029
410,62,0,127,42.000000,43.000000,59.294088,60.705852,-17.294088,-17.705852
411,67,0,127,42.000000,43.000000,59.294088,60.705852,-17.294088,-17.705852
412,50,0,95,42.250000,42.375000,59.647029,59.823499,-17.397029,-17.448499
413,72,0,127,42.250000,42.500000,59.647029,59.999970,-17.397029,-17.499970
414,55,0,95,42.375000,42.750000,59.823499,60.352911,-17.448499,-17.602911
415,60,0,95,42.375000,42.750000,59.823499,60.352911,-17.448499,-17.602911
416,72,0,127,42.500000,42.750000,59.999970,60.352911,-17.499970,-17.602911
417,79,0,127,42.750000,43.000000,60.352911,60.705852,-17.602911,-17.705852
418,76,0,127,43.000000,43.500000,60.705852,61.411734,-17.705852,-17.911734
419,48,0,95,43.000000,44.000000,60.705852,62.117616,-17.705852,-18.117616
420,67,0,127,43.000000,44.000000,60.705852,62.117616,-17.705852,-18.117616
421,55,0,95,43.250000,43.750000,61.058793,61.764675,-17.808793,-18.014675
422,60,0,95,43.250000,43.750000,61.058793,61.764675,-17.808793,-18.014675
423,60,0,127,43.500000,43.750000,61.411734,61.764675,-17.911734,-18.014675
424,72,0,127,43.500000,43.750000,61.411734,61.764675,-17.911734,-18.014675
425,67,0,127,43.750000,44.000000,61.764675,62.117616,-18.014675,-18.117616
426,79,0,127,43.750000,44.000000,61.764675,62.117616,-18.014675,-18.117616
427,67,0,127,44.000000,44.250000,62.117616,62.470557,-18.117616,-18.220557
428,76,0,127,44.000000,44.250000,62.117616,62.470557,-18.117616,-18.220557
429,79,0,127,44.000000,44.250000,62.117616,62.470557,-18.117616,-18.220557
430,48,0,95,44.250000,44.375000,62.470557,62.647028,-18.220557,-18.272028
431,72,0,127,44.250000,44.500000,62.470557,62.823498,-18.220557,-18.323498
432,55,0,95,44.375000,44.750000,62.647028,63.176439,-18.272028,-18.426439
433,60,0,95,44.375000,44.750000,62.647028,63.176439,-18.272028,-18.426439
434,72,0,127,44.500000,44.750000,62.823498,63.176439,-18.323498,-18.426439
435,72,0,127,44.750000,44.875000,63.176439,63.352910,-18.426439,-18.477910
436,67,0,127,44.875000,45.000000,63.352910,63.529380,-18.477910,-18.529380
437,79,0,127,44.875000,45.000000,63.352910,63.529380,-18.477910,-18.529380
438,67,0,127,45.000000,45.250000,63.529380,63.882321,-18.529380,-18.632321
439,74,0,127,45.000000,45.250000,63.529380,63.882321,-18.529380,-18.632321
440,72,0,127,45.250000,45.500000,63.882321,64.235262,-18.632321,-18.735262
441,55,0,95,45.250000,45.625000,63.882321,64.411732,-18.632321,-18.786732
442,60,0,95,45.250000,45.625000,63.882321,64.411732,-18.632321,-18.786732
443,64,0,127,45.500000,46.000000,64.235262,64.941144,-18.735262,-18.941144
444,67,0,127,45.500000,46.000000,64.235262,64.941144,-18.735262,-18.941144
445,72,0,127,45.500000,46.000000,64.235262,64.941144,-18.735262,-18.941144
446,48,0,95,45.625000,45.750000,64.411732,64.588203,-18.786732,-18.838203
447,52,0,95,45.750000,46.000000,64.588203,64.941144,-18.838203,-18.941144
448,55,0,95,45.750000,46.000000,64.588203,64.941144,-18.838203,-18.941144
449,60,0,95,45.750000,46.000000,64.588203,64.941144,-18.838203,-18.941144
450,62,0,127,46.000000,46.250000,64.941144,65.294085,-18.941144,-19.044085
451,67,0,127,46.000000,46.250000,64.941144,65.294085,-18.941144,-19.044085
452,74,0,127,46.000000,46.250000,64.941144,65.294085,-18.941144,-19.044085
453,50,0,95,46.250000,46.375000,65.294085,65.470556,-19.044085,-19.095556
454,72,0,127,46.250000,46.375000,65.294085,65.470556,-19.044085,-19.095556
455,72,0,127,46.375000,46.500000,65.470556,65.647026,-19.095556,-19.147026
456,55,0,95,46.375000,46.750000,65.470556,65.999967,-19.095556,-19.249967
457,60,0,95,46.375000,46.750000,65.470556,65.999967,-19.095556,-19.249967
458,65,0,127,46.500000,46.750000,65.647026,65.999967,-19.147026,-19.249967
459,67,0,127,46.500000,46.750000,65.647026,65.999967,-19.147026,-19.249967
460,72,0,127,46.500000,46.750000,65.647026,65.999967,-19.147026,-19.249967
461,62,0,127,46.750000,47.000000,65.999967,66.352908,-19.249967,-19.352908
462,74,0,127,46.750000,47.000000,65.999967,66.352908,-19.249967,-19.352908
463,60,0,95,47.000000,47.500000,66.352908,67.058790,-19.352908,-19.558790
464,64,0,95,47.000000,47.625000,66.352908,67.235260,-19.352908,-19.610260
465,52,0,95,47.000000,48.000000,66.352908,67.764672,-19.352908,-19.764672
466,67,0,127,47.000000,48.000000,66.352908,67.764672,-19.352908,-19.764672
467,72,0,127,47.000000,48.000000,66.352908,67.764672,-19.352908,-19.764672
468,60,0,95,47.250000,47.500000,66.705849,67.588201,-19.455849,-20.088201
469,62,0,95,47.500000,47.562500,67.058790,67.147025,-19.558790,-19.584525
470,64,0,95,47.562500,47.625000,67.147025,67.764672,-19.584525,-20.139672
471,62,0,95,47.625000,47.750000,67.235260,67.411731,-19.610260,-19.661731
472,60,0,95,47.750000,47.875000,67.411731,67.764672,-19.661731,-19.889672
473,59,0,95,47.875000,48.000000,67.588201,67.764672,-19.713201,-19.764672
474,72,0,127,48.000000,48.250000,67.764672,68.117613,-19.764672,-19.867613
475,57,0,95,48.000000,49.000000,67.764672,69.176436,-19.764672,-20.176436
476,60,0,95,48.250000,48.500000,68.117613,68.470554,-19.867613,-19.970554
477,79,0,127,48.250000,48.500000,68.117613,68.470554,-19.867613,-19.970554
478,60,0,95,48.500000,48.750000,68.470554,68.823495,-19.970554,-20.073495
479,79,0,127,48.500000,48.750000,68.470554,68.823495,-19.970554,-20.073495
480,60,0,95,48.750000,48.875000,68.823495,68.999966,-20.073495,-20.124966
481,74,0,127,48.750000,48.875000,68.823495,68.999966,-20.073495,-20.124966
482,67,0,95,48.875000,49.000000,68.999966,69.176436,-20.124966,-20.176436
483,72,0,127,48.875000,49.000000,68.999966,69.176436,-20.124966,-20.176436
484,62,0,95,49.000000,49.250000,69.176436,69.529377,-20.176436,-20.279377
485,72,0,127,49.000000,49.250000,69.176436,69.529377,-20.176436,-20.279377
486,53,0,95,49.000000,50.000000,69.176436,70.588200,-20.176436,-20.588200
487,60,0,95,49.250000,49.500000,69.529377,69.882318,-20.279377,-20.382318
488,79,0,127,49.250000,49.500000,69.529377,69.882318,-20.279377,-20.382318
489,79,0,127,49.500000,49.750000,69.882318,70.235259,-20.382318,-20.485259
490,60,0,95,49.500000,50.000000,69.882318,70.588200,-20.382318,-20.588200
491,74,0,127,49.750000,49.875000,70.235259,70.411730,-20.485259,-20.536730
492,72,0,127,49.875000,50.000000,70.411730,70.588200,-20.536730,-20.588200
493,72,0,127,50.000000,50.250000,70.588200,70.941141,-20.588200,-20.691141
494,55,0,95,50.000000,51.000000,70.588200,71.999964,-20.588200,-20.999964
495,74,0,127,50.250000,50.375000,70.941141,71.117611,-20.691141,-20.742611
496,60,0,95,50.250000,50.500000,70.941141,71.294082,-20.691141,-20.794082
497,72,0,127,50.375000,50.500000,71.117611,71.294082,-20.742611,-20.794082
498,60,0,95,50.500000,50.750000,71.294082,71.647023,-20.794082,-20.897023
499,72,0,127,50.500000,50.750000,71.294082,71.647023,-20.794082,-20.897023
500,62,0,95,50.750000,50.875000,71.647023,71.823493,-20.897023,-20.948493
501,74,0,127,50.750000,50.875000,71.647023,71.823493,-20.897023,-20.948493
502,64,0,95,50.875000,51.000000,71.823493,71.999964,-20.948493,-20.999964
503,72,0,127,50.875000,51.000000,71.823493,71.999964,-20.948493,-20.999964
504,72,0,127,51.000000,51.250000,71.999964,72.352905,-20.999964,-21.102905
505,64,0,95,51.000000,51.500000,71.999964,72.705846,-20.999964,-21.205846
506,60,0,95,51.000000,51.750000,71.999964,73.058787,-20.999964,-21.308787
507,74,0,127,51.250000,51.500000,72.352905,72.705846,-21.102905,-21.205846
508,60,0,95,51.500000,51.750000,72.705846,73.411728,-21.205846,-21.661728
509,79,0,127,51.750000,51.875000,73.058787,73.235258,-21.308787,-21.360258
510,67,0,95,51.750000,52.000000,73.058787,73.411728,-21.308787,-21.411728
511,72,0,127,52.000000,52.250000,73.411728,73.764669,-21.411728,-21.514669
512,57,0,95,52.000000,53.000000,73.411728,74.823492,-21.411728,-21.823492
513,60,0,95,52.250000,52.500000,73.764669,74.117610,-21.514669,-21.617610
514,74,0,127,52.250000,52.500000,73.764669,74.117610,-21.514669,-21.617610
515,60,0,95,52.500000,52.750000,74.117610,74.470551,-21.617610,-21.720551
516,74,0,127,52.500000,52.750000,74.117610,74.470551,-21.617610,-21.720551
517,62,0,95,52.750000,52.875000,74.470551,74.647021,-21.720551,-21.772021
518,72,0,127,52.750000,52.875000,74.470551,74.647021,-21.720551,-21.772021
519,67,0,95,52.875000,53.000000,74.647021,74.823492,-21.772021,-21.823492
520,83,0,127,52.875000,53.000000,74.647021,74.823492,-21.772021,-21.823492
521,62,0,95,53.000000,53.250000,74.823492,75.176433,-21.823492,-21.926433
522,53,0,95,53.000000,54.000000,74.823492,76.235256,-21.823492,-22.235256
523,60,0,95,53.250000,53.500000,75.176433,75.529374,-21.926433,-22.029374
524,60,0,95,53.500000,54.000000,75.529374,76.235256,-22.029374,-22.235256
525,83,0,127,53.625000,53.750000,75.705844,75.882315,-22.080844,-22.132315
526,79,0,127,53.750000,53.875000,75.882315,76.058785,-22.132315,-22.183785
527,74,0,127,53.875000,54.000000,76.058785,76.235256,-22.183785,-22.235256
528,74,0,127,54.000000,54.250000,76.235256,76.588197,-22.235256,-22.338197
529,55,0,95,54.000000,55.000000,76.235256,77.647020,-22.235256,-22.647020
530,60,0,95,54.250000,54.500000,76.588197,76.941138,-22.338197,-22.441138
531,76,0,127,54.250000,54.500000,76.588197,76.941138,-22.338197,-22.441138
532,60,0,95,54.500000,54.750000,76.941138,77.294079,-22.441138,-22.544079
533,74,0,127,54.500000,54.750000,76.941138,77.294079,-22.441138,-22.544079
534,74,0,127,54.750000,54.875000,77.294079,77.470550,-22.544079,-22.595550
535,62,0,95,54.750000,55.000000,77.294079,77.647020,-22.544079,-22.647020
536,72,0,127,54.875000,55.000000,77.470550,77.647020,-22.595550,-22.647020
537,72,0,127,55.000000,55.125000,77.647020,77.823491,-22.647020,-22.698491
538,60,0,95,55.000000,55.500000,77.647020,78.352902,-22.647020,-22.852902
539,48,0,95,55.000000,56.000000,77.647020,79.058784,-22.647020,-23.058784
540,55,0,95,55.000000,56.000000,77.647020,79.058784,-22.647020,-23.058784
541,79,0,127,55.125000,55.250000,77.823491,77.999961,-22.698491,-22.749961
542,60,0,95,55.500000,55.750000,78.352902,78.705843,-22.852902,-22.955843
543,67,0,95,55.750000,56.000000,78.705843,79.058784,-22.955843,-23.058784
544,72,0,127,55.750000,56.000000,78.705843,79.058784,-22.955843,-23.058784
545,69,0,127,56.000000,56.250000,79.058784,79.411725,-23.058784,-23.161725
546,81,0,127,56.000000,56.250000,79.058784,79.411725,-23.058784,-23.161725
547,57,0,95,56.000000,57.000000,79.058784,80.470548,-23.058784,-23.470548
548,60,0,95,56.250000,56.500000,79.411725,79.764666,-23.161725,-23.264666
549,79,0,127,56.250000,56.500000,79.411725,79.764666,-23.161725,-23.264666
550,60,0,95,56.500000,56.750000,79.764666,80.117607,-23.264666,-23.367607
551,79,0,127,56.500000,56.750000,79.764666,80.117607,-23.264666,-23.367607
552,62,0,95,56.750000,56.875000,80.117607,80.294078,-23.367607,-23.419078
553,74,0,127,56.750000,56.875000,80.117607,80.294078,-23.367607,-23.419078
554,67,0,95,56.875000,57.000000,80.294078,80.470548,-23.419078,-23.470548
555,72,0,127,56.875000,57.000000,80.294078,80.470548,-23.419078,-23.470548
556,62,0,95,57.000000,57.250000,80.470548,80.823489,-23.470548,-23.573489
557,67,0,127,57.000000,57.250000,80.470548,80.823489,-23.470548,-23.573489
558,79,0,127,57.000000,57.250000,80.470548,80.823489,-23.470548,-23.573489
559,53,0,95,57.000000,58.000000,80.470548,81.882312,-23.470548,-23.882312
560,60,0,95,57.250000,57.500000,80.823489,81.176430,-23.573489,-23.676430
561,79,0,127,57.250000,57.500000,80.823489,81.176430,-23.573489,-23.676430
562,79,0,127,57.500000,57.750000,81.176430,81.529371,-23.676430,-23.779371
563,60,0,95,57.500000,58.000000,81.176430,81.882312,-23.676430,-23.882312
564,79,0,127,57.750000,57.875000,81.529371,81.705842,-23.779371,-23.830842
565,76,0,127,57.875000,58.000000,81.705842,81.882312,-23.830842,-23.882312
566,74,0,127,58.000000,58.125000,81.882312,82.058783,-23.882312,-23.933783
567,55,0,95,58.000000,59.000000,81.882312,83.294076,-23.882312,-24.294076
568,79,0,127,58.125000,58.250000,82.058783,82.235253,-23.933783,-23.985253
569,60,0,95,58.250000,58.500000,82.235253,82.588194,-23.985253,-24.088194
570,60,0,95,58.500000,58.750000,82.588194,82.941135,-24.088194,-24.191135
571,79,0,127,58.625000,58.750000,82.764664,82.941135,-24.139664,-24.191135
572,62,0,95,58.750000,58.875000,82.941135,83.117605,-24.191135,-24.242605
573,64,0,95,58.875000,59.000000,83.117605,83.294076,-24.242605,-24.294076
574,64,0,95,59.000000,59.500000,83.294076,83.999958,-24.294076,-24.499958
575,60,0,95,59.000000,59.750000,83.294076,84.352899,-24.294076,-24.602899
576,79,0,127,59.125000,59.250000,83.470546,83.647017,-24.345546,-24.397017
577,60,0,95,59.500000,59.750000,83.999958,84.705840,-24.499958,-24.955840
578,79,0,127,59.750000,59.875000,84.352899,84.529370,-24.602899,-24.654370
579,67,0,95,59.750000,60.000000,84.352899,84.705840,-24.602899,-24.705840
580,74,0,127,60.000000,60.125000,84.705840,84.882311,-24.705840,-24.757311
581,57,0,95,60.000000,61.000000,84.705840,86.117604,-24.705840,-25.117604
582,79,0,127,60.125000,60.250000,84.882311,85.058781,-24.757311,-24.808781
583,60,0,95,60.250000,60.500000,85.058781,85.411722,-24.808781,-24.911722
584,79,0,127,60.375000,60.500000,85.235252,85.411722,-24.860252,-24.911722
585,60,0,95,60.500000,60.750000,85.411722,85.764663,-24.911722,-25.014663
586,79,0,127,60.625000,60.750000,85.588193,85.764663,-24.963193,-25.014663
587,62,0,95,60.750000,60.875000,85.764663,85.941134,-25.014663,-25.066134
588,67,0,95,60.875000,61.000000,85.941134,86.117604,-25.066134,-25.117604
589,79,0,127,60.875000,61.000000,85.941134,86.117604,-25.066134,-25.117604
590,62,0,95,61.000000,61.250000,86.117604,86.470545,-25.117604,-25.220545
591,53,0,95,61.000000,62.000000,86.117604,87.529368,-25.117604,-25.529368
592,79,0,127,61.250000,61.375000,86.470545,86.647015,-25.220545,-25.272015
593,60,0,95,61.250000,61.500000,86.470545,86.823486,-25.220545,-25.323486
594,74,0,127,61.375000,61.500000,86.647015,86.823486,-25.272015,-25.323486
595,72,0,127,61.500000,61.625000,86.823486,86.999956,-25.323486,-25.374956
596,60,0,95,61.500000,62.000000,86.823486,87.529368,-25.323486,-25.529368
597,77,0,127,61.625000,61.750000,86.999956,87.176427,-25.374956,-25.426427
598,79,0,127,61.750000,61.875000,87.176427,87.352897,-25.426427,-25.477897
599,74,0,127,62.000000,62.250000,87.529368,87.882309,-25.529368,-25.632309
600,55,0,95,62.000000,63.000000,87.529368,88.941132,-25.529368,-25.941132
601,60,0,95,62.250000,62.500000,87.882309,88.235250,-25.632309,-25.735250
602,72,0,127,62.250000,62.500000,87.882309,88.235250,-25.632309,-25.735250
603,60,0,95,62.500000,62.750000,88.235250,88.588191,-25.735250,-25.838191
604,72,0,127,62.500000,62.750000,88.235250,88.588191,-25.735250,-25.838191
605,62,0,95,62.750000,63.000000,88.588191,88.941132,-25.838191,-25.941132
606,74,0,127,62.750000,63.000000,88.588191,88.941132,-25.838191,-25.941132
607,60,0,95,63.000000,63.500000,88.941132,89.647014,-25.941132,-26.147014
608,48,0,95,63.000000,64.000000,88.941132,90.352896,-25.941132,-26.352896
609,55,0,95,63.000000,64.000000,88.941132,90.352896,-25.941132,-26.352896
610,72,0,127,63.000000,64.000000,88.941132,90.352896,-25.941132,-26.352896
611,67,0,95,63.500000,63.625000,89.647014,89.823485,-26.147014,-26.198485
612,60,0,95,63.750000,63.875000,89.999955,90.176425,-26.249955,-26.301425
613,74,0,127,64.000000,64.250000,90.352896,90.705837,-26.352896,-26.455837
614,67,0,127,64.000000,65.000000,90.352896,91.764660,-26.352896,-26.764660
615,72,0,127,64.250000,64.500000,90.705837,91.058778,-26.455837,-26.558778
616,55,0,95,64.375000,64.625000,90.882307,91.235248,-26.507307,-26.610248
617,60,0,95,64.375000,64.625000,90.882307,91.235248,-26.507307,-26.610248
618,72,0,127,64.500000,64.750000,91.058778,91.411719,-26.558778,-26.661719
619,48,0,95,64.750000,65.000000,91.411719,91.764660,-26.661719,-26.764660
620,72,0,127,64.750000,65.000000,91.411719,91.764660,-26.661719,-26.764660
621,76,0,127,65.000000,65.250000,91.764660,92.117601,-26.764660,-26.867601
622,67,0,127,65.000000,66.000000,91.764660,93.176424,-26.764660,-27.176424
623,72,0,127,65.250000,65.500000,92.117601,92.470542,-26.867601,-26.970542
624,55,0,95,65.250000,65.625000,92.117601,92.647013,-26.867601,-27.022013
625,60,0,95,65.250000,65.625000,92.117601,92.647013,-26.867601,-27.022013
626,72,0,127,65.500000,65.750000,92.470542,92.823483,-26.970542,-27.073483
627,48,0,95,65.625000,65.750000,92.647013,92.823483,-27.022013,-27.073483
628,52,0,95,65.750000,66.000000,92.823483,93.176424,-27.073483,-27.176424
629,55,0,95,65.750000,66.000000,92.823483,93.176424,-27.073483,-27.176424
630,60,0,95,65.750000,66.000000,92.823483,93.176424,-27.073483,-27.176424
631,72,0,127,65.750000,66.000000,92.823483,93.176424,-27.073483,-27.176424
632,74,0,127,66.000000,66.250000,93.176424,93.529365,-27.176424,-27.279365
633,67,0,127,66.000000,67.000000,93.176424,94.588188,-27.176424,-27.588188
634,50,0,95,66.250000,66.375000,93.529365,93.705836,-27.279365,-27.330836
635,74,0,127,66.250000,66.375000,93.529365,93.705836,-27.279365,-27.330836
636,76,0,127,66.375000,66.500000,93.705836,93.882306,-27.330836,-27.382306
637,55,0,95,66.375000,66.625000,93.705836,94.058776,-27.330836,-27.433776
638,60,0,95,66.375000,66.625000,93.705836,94.058776,-27.330836,-27.433776
639,74,0,127,66.500000,66.750000,93.882306,94.235247,-27.382306,-27.485247
640,50,0,95,66.750000,67.000000,94.235247,94.588188,-27.485247,-27.588188
641,72,0,127,66.750000,67.000000,94.235247,94.588188,-27.485247,-27.588188
642,48,0,95,67.000000,67.500000,94.588188,95.294070,-27.588188,-27.794070
643,76,0,127,67.000000,67.500000,94.588188,95.294070,-27.588188,-27.794070
644,67,0,127,67.000000,67.750000,94.588188,95.647011,-27.588188,-27.897011
645,64,0,127,67.000000,68.000000,94.588188,95.999952,-27.588188,-27.999952
646,55,0,95,67.250000,67.500000,94.941129,95.294070,-27.691129,-27.794070
647,60,0,95,67.250000,67.500000,94.941129,95.294070,-27.691129,-27.794070
648,67,0,127,67.500000,67.750000,95.294070,95.999952,-27.794070,-28.249952
649,55,0,95,67.750000,68.000000,95.647011,95.999952,-27.897011,-27.999952
650,59,0,95,67.750000,68.000000,95.647011,95.999952,-27.897011,-27.999952
651,72,0,127,67.750000,68.000000,95.647011,95.999952,-27.897011,-27.999952
652,74,0,127,68.000000,68.250000,95.999952,96.352893,-27.999952,-28.102893
653,67,0,127,68.000000,69.000000,95.999952,97.411716,-27.999952,-28.411716
654,72,0,127,68.250000,68.500000,96.352893,96.705834,-28.102893,-28.205834
655,55,0,95,68.375000,68.625000,96.529364,96.882305,-28.154364,-28.257305
656,60,0,95,68.375000,68.625000,96.529364,96.882305,-28.154364,-28.257305
657,72,0,127,68.500000,68.750000,96.705834,97.058775,-28.205834,-28.308775
658,74,0,127,68.750000,68.875000,97.058775,97.235246,-28.308775,-28.360246
659,48,0,95,68.750000,69.000000,97.058775,97.411716,-28.308775,-28.411716
660,76,0,127,68.875000,69.000000,97.235246,97.411716,-28.360246,-28.411716
661,74,0,127,69.000000,69.250000,97.411716,97.764657,-28.411716,-28.514657
662,67,0,127,69.000000,70.000000,97.411716,98.823480,-28.411716,-28.823480
663,72,0,127,69.250000,69.500000,97.764657,98.117598,-28.514657,-28.617598
664,55,0,95,69.250000,69.625000,97.764657,98.294068,-28.514657,-28.669068
665,60,0,95,69.250000,69.625000,97.764657,98.294068,-28.514657,-28.669068
666,72,0,127,69.500000,69.875000,98.117598,98.647009,-28.617598,-28.772009
667,48,0,95,69.625000,69.750000,98.294068,98.470539,-28.669068,-28.720539
668,52,0,95,69.750000,70.000000,98.470539,98.823480,-28.720539,-28.823480
669,55,0,95,69.750000,70.000000,98.470539,98.823480,-28.720539,-28.823480
670,60,0,95,69.750000,70.000000,98.470539,98.823480,-28.720539,-28.823480
671,72,0,127,69.875000,70.000000,98.647009,98.823480,-28.772009,-28.823480
672,74,0,127,70.000000,70.250000,98.823480,99.176421,-28.823480,-28.926421
673,67,0,127,70.000000,71.000000,98.823480,100.235244,-28.823480,-29.235244
674,71,0,127,70.000000,71.000000,98.823480,100.235244,-28.823480,-29.235244
675,50,0,95,70.125000,70.250000,98.999950,99.176421,-28.874950,-28.926421
676,55,0,95,70.250000,70.375000,99.176421,99.352891,-28.926421,-28.977891
677,76,0,127,70.250000,70.500000,99.176421,99.529362,-28.926421,-29.029362
678,60,0,95,70.375000,70.500000,99.352891,99.529362,-28.977891,-29.029362
679,55,0,95,70.500000,70.625000,99.529362,99.705832,-29.029362,-29.080832
680,74,0,127,70.500000,70.750000,99.529362,99.882303,-29.029362,-29.132303
681,50,0,95,70.625000,70.750000,99.705832,99.882303,-29.080832,-29.132303
682,48,0,95,70.750000,70.875000,99.882303,100.058774,-29.132303,-29.183774
683,72,0,127,70.750000,71.000000,99.882303,100.235244,-29.132303,-29.235244
684,72,0,127,71.000000,71.500000,100.235244,100.941126,-29.235244,-29.441126
685,67,0,127,71.000000,71.750000,100.235244,101.294067,-29.235244,-29.544067
686,48,0,95,71.000000,72.000000,100.235244,101.647008,-29.235244,-29.647008
687,64,0,127,71.000000,72.000000,100.235244,101.647008,-29.235244,-29.647008
688,67,0,127,71.500000,71.750000,100.941126,101.647008,-29.441126,-29.897008
689,72,0,127,71.750000,72.000000,101.294067,101.647008,-29.544067,-29.647008
690,48,0,95,71.875000,72.000000,101.470538,101.647008,-29.595538,-29.647008
691,74,0,127,72.000000,72.250000,101.647008,101.999949,-29.647008,-29.749949
692,62,0,127,72.000000,73.000000,101.647008,103.058772,-29.647008,-30.058772
693,67,0,127,72.052083,73.000000,101.720537,103.058772,-29.668454,-30.058772
694,72,0,127,72.250000,72.500000,101.999949,102.352890,-29.749949,-29.852890
695,55,0,95,72.375000,72.625000,102.176419,102.529360,-29.801419,-29.904360
696,60,0,95,72.375000,72.625000,102.176419,102.529360,-29.801419,-29.904360
697,72,0,127,72.500000,72.750000,102.352890,102.705831,-29.852890,-29.955831
698,48,0,95,72.750000,73.000000,102.705831,103.058772,-29.955831,-30.058772
699,76,0,127,72.750000,73.000000,102.705831,103.058772,-29.955831,-30.058772
700,74,0,127,73.000000,73.250000,103.058772,103.411713,-30.058772,-30.161713
701,67,0,127,73.000000,74.000000,103.058772,104.470536,-30.058772,-30.470536
702,72,0,127,73.250000,73.500000,103.411713,103.764654,-30.161713,-30.264654
703,55,0,95,73.250000,73.625000,103.411713,103.941125,-30.161713,-30.316125
704,60,0,95,73.250000,73.625000,103.411713,103.941125,-30.161713,-30.316125
705,72,0,127,73.500000,74.000000,103.764654,104.470536,-30.264654,-30.470536
706,48,0,95,73.625000,73.750000,103.941125,104.117595,-30.316125,-30.367595
707,52,0,95,73.750000,74.000000,104.117595,104.470536,-30.367595,-30.470536
708,55,0,95,73.750000,74.000000,104.117595,104.470536,-30.367595,-30.470536
709,60,0,95,73.750000,74.000000,104.117595,104.470536,-30.367595,-30.470536
710,74,0,127,74.000000,74.250000,104.470536,104.823477,-30.470536,-30.573477
711,67,0,127,74.000000,75.000000,104.470536,105.882300,-30.470536,-30.882300
712,50,0,95,74.250000,74.375000,104.823477,104.999948,-30.573477,-30.624948
713,74,0,127,74.250000,74.375000,104.823477,104.999948,-30.573477,-30.624948
714,76,0,127,74.375000,74.500000,104.999948,105.176418,-30.624948,-30.676418
715,55,0,95,74.375000,74.625000,104.999948,105.352889,-30.624948,-30.727889
716,60,0,95,74.375000,74.625000,104.999948,105.352889,-30.624948,-30.727889
717,74,0,127,74.500000,74.750000,105.176418,105.529359,-30.676418,-30.779359
718,50,0,95,74.750000,75.000000,105.529359,105.882300,-30.779359,-30.882300
719,72,0,127,74.750000,75.000000,105.529359,105.882300,-30.779359,-30.882300
720,48,0,95,75.000000,75.500000,105.882300,106.588182,-30.882300,-31.088182
721,76,0,127,75.000000,75.500000,105.882300,106.588182,-30.882300,-31.088182
722,67,0,127,75.000000,75.750000,105.882300,106.941123,-30.882300,-31.191123
723,64,0,127,75.000000,76.000000,105.882300,107.294064,-30.882300,-31.294064
724,55,0,95,75.250000,75.500000,106.235241,106.588182,-30.985241,-31.088182
725,60,0,95,75.250000,75.500000,106.235241,106.588182,-30.985241,-31.088182
726,67,0,127,75.500000,75.750000,106.588182,107.294064,-31.088182,-31.544064
727,55,0,95,75.750000,76.000000,106.941123,107.294064,-31.191123,-31.294064
728,59,0,95,75.750000,76.000000,106.941123,107.294064,-31.191123,-31.294064
729,72,0,127,75.750000,76.000000,106.941123,107.294064,-31.191123,-31.294064
730,74,0,127,76.000000,76.250000,107.294064,107.647005,-31.294064,-31.397005
731,62,0,127,76.000000,77.000000,107.294064,108.705828,-31.294064,-31.705828
732,67,0,127,76.052083,77.000000,107.367593,108.705828,-31.315510,-31.705828
733,72,0,127,76.250000,76.500000,107.647005,107.999946,-31.397005,-31.499946
734,55,0,95,76.375000,76.625000,107.823476,108.176417,-31.448476,-31.551417
735,60,0,95,76.375000,76.625000,107.823476,108.176417,-31.448476,-31.551417
736,72,0,127,76.500000,76.750000,107.999946,108.352887,-31.499946,-31.602887
737,48,0,95,76.750000,77.000000,108.352887,108.705828,-31.602887,-31.705828
738,76,0,127,76.750000,77.000000,108.352887,108.705828,-31.602887,-31.705828
739,74,0,127,77.000000,77.250000,108.705828,109.058769,-31.705828,-31.808769
740,67,0,127,77.000000,78.000000,108.705828,110.117592,-31.705828,-32.117592
741,72,0,127,77.250000,77.500000,109.058769,109.411710,-31.808769,-31.911710
742,55,0,95,77.250000,77.625000,109.058769,109.588181,-31.808769,-31.963181
743,60,0,95,77.250000,77.625000,109.058769,109.588181,-31.808769,-31.963181
744,72,0,127,77.500000,78.000000,109.411710,110.117592,-31.911710,-32.117592
745,48,0,95,77.625000,77.750000,109.588181,109.764651,-31.963181,-32.014651
746,52,0,95,77.750000,78.000000,109.764651,110.117592,-32.014651,-32.117592
747,55,0,95,77.750000,78.000000,109.764651,110.117592,-32.014651,-32.117592
748,60,0,95,77.750000,78.000000,109.764651,110.117592,-32.014651,-32.117592
749,74,0,127,78.000000,78.250000,110.117592,110.470533,-32.117592,-32.220533
750,67,0,127,78.000000,79.000000,110.117592,111.529356,-32.117592,-32.529356
751,50,0,95,78.125000,78.250000,110.294062,110.470533,-32.169062,-32.220533
752,55,0,95,78.250000,78.375000,110.470533,110.647003,-32.220533,-32.272003
753,76,0,127,78.250000,78.500000,110.470533,110.823474,-32.220533,-32.323474
754,60,0,95,78.375000,78.500000,110.647003,110.823474,-32.272003,-32.323474
755,55,0,95,78.500000,78.625000,110.823474,110.999944,-32.323474,-32.374944
756,74,0,127,78.500000,78.750000,110.823474,111.176415,-32.323474,-32.426415
757,50,0,95,78.625000,78.750000,110.999944,111.176415,-32.374944,-32.426415
758,48,0,95,78.750000,78.875000,111.176415,111.352885,-32.426415,-32.477885
759,72,0,127,78.750000,79.000000,111.176415,111.529356,-32.426415,-32.529356
760,72,0,127,79.000000,79.500000,111.529356,112.235238,-32.529356,-32.735238
761,48,0,95,79.000000,80.000000,111.529356,112.941120,-32.529356,-32.941120
762,60,0,127,79.000000,80.000000,111.529356,112.941120,-32.529356,-32.941120
763,67,0,127,79.000000,80.000000,111.529356,112.941120,-32.529356,-32.941120
764,74,0,127,79.500000,79.750000,112.235238,112.588179,-32.735238,-32.838179
765,48,0,95,79.750000,80.000000,112.588179,112.941120,-32.838179,-32.941120
766,72,0,127,79.750000,80.000000,112.588179,112.941120,-32.838179,-32.941120
767,72,0,127,80.000000,80.250000,112.941120,113.294061,-32.941120,-33.044061
768,79,0,127,80.000000,80.250000,112.941120,113.294061,-32.941120,-33.044061
769,48,0,95,80.125000,80.250000,113.117591,113.294061,-32.992591,-33.044061
770,52,0,95,80.250000,80.375000,113.294061,113.470532,-33.044061,-33.095532
771,64,0,127,80.250000,80.500000,113.294061,113.647002,-33.044061,-33.147002
772,72,0,127,80.250000,80.500000,113.294061,113.647002,-33.044061,-33.147002
773,55,0,95,80.375000,80.500000,113.470532,113.647002,-33.095532,-33.147002
774,48,0,95,80.500000,80.625000,113.647002,113.823472,-33.147002,-33.198472
775,72,0,127,80.500000,80.750000,113.647002,113.999943,-33.147002,-33.249943
776,67,0,127,80.500000,81.000000,113.647002,114.352884,-33.147002,-33.352884
777,50,0,95,80.750000,80.875000,113.999943,114.176413,-33.249943,-33.301413
778,72,0,127,80.750000,80.875000,113.999943,114.176413,-33.249943,-33.301413
779,48,0,95,80.875000,81.000000,114.176413,114.352884,-33.301413,-33.352884
780,79,0,127,80.875000,81.000000,114.176413,114.352884,-33.301413,-33.352884
781,67,0,127,81.000000,81.250000,114.352884,114.705825,-33.352884,-33.455825
782,74,0,127,81.000000,81.250000,114.352884,114.705825,-33.352884,-33.455825
783,48,0,95,81.125000,81.250000,114.529354,114.705825,-33.404354,-33.455825
784,52,0,95,81.250000,81.375000,114.705825,114.882295,-33.455825,-33.507295
785,64,0,127,81.250000,81.500000,114.705825,115.058766,-33.455825,-33.558766
786,72,0,127,81.250000,81.500000,114.705825,115.058766,-33.455825,-33.558766
787,55,0,95,81.375000,81.500000,114.882295,115.058766,-33.507295,-33.558766
788,48,0,95,81.500000,81.625000,115.058766,115.235236,-33.558766,-33.610236
789,67,0,127,81.500000,82.000000,115.058766,115.764648,-33.558766,-33.764648
790,72,0,127,81.500000,82.000000,115.058766,115.764648,-33.558766,-33.764648
791,50,0,95,81.750000,81.875000,115.411707,115.588178,-33.661707,-33.713178
792,48,0,95,81.875000,82.000000,115.588178,115.764648,-33.713178,-33.764648
793,74,0,127,82.000000,82.250000,115.764648,116.117589,-33.764648,-33.867589
794,67,0,127,82.000000,82.500000,115.764648,116.470530,-33.764648,-33.970530
795,48,0,95,82.250000,82.375000,116.117589,116.294060,-33.867589,-33.919060
796,72,0,127,82.250000,82.375000,116.117589,116.294060,-33.867589,-33.919060
797,72,0,127,82.375000,82.500000,116.294060,116.470530,-33.919060,-33.970530
798,55,0,95,82.375000,82.750000,116.294060,116.823471,-33.919060,-34.073471
799,60,0,95,82.375000,82.750000,116.294060,116.823471,-33.919060,-34.073471
800,72,0,127,82.500000,82.750000,116.470530,116.823471,-33.970530,-34.073471
801,67,0,127,82.500000,83.000000,116.470530,117.176412,-33.970530,-34.176412
802,79,0,127,82.750000,83.000000,116.823471,117.176412,-34.073471,-34.176412
803,48,0,95,83.000000,83.500000,117.176412,117.882294,-34.176412,-34.382294
804,76,0,127,83.000000,83.500000,117.176412,117.882294,-34.176412,-34.382294
805,64,0,127,83.000000,84.000000,117.176412,118.588176,-34.176412,-34.588176
806,67,0,127,83.000000,84.000000,117.176412,118.588176,-34.176412,-34.588176
807,55,0,95,83.250000,83.500000,117.529353,117.882294,-34.279353,-34.382294
808,60,0,95,83.250000,83.500000,117.529353,117.882294,-34.279353,-34.382294
809,72,0,127,83.500000,83.750000,117.882294,118.235235,-34.382294,-34.485235
810,55,0,95,83.750000,84.000000,118.235235,118.588176,-34.485235,-34.588176
811,59,0,95,83.750000,84.000000,118.235235,118.588176,-34.485235,-34.588176
812,79,0,127,83.750000,84.000000,118.235235,118.588176,-34.485235,-34.588176
813,72,0,127,84.000000,84.250000,118.588176,118.941117,-34.588176,-34.691117
814,79,0,127,84.000000,84.250000,118.588176,118.941117,-34.588176,-34.691117
815,48,0,95,84.125000,84.250000,118.764646,118.941117,-34.639646,-34.691117
816,52,0,95,84.250000,84.375000,118.941117,119.117587,-34.691117,-34.742587
817,64,0,127,84.250000,84.500000,118.941117,119.294058,-34.691117,-34.794058
818,72,0,127,84.250000,84.500000,118.941117,119.294058,-34.691117,-34.794058
819,55,0,95,84.375000,84.500000,119.117587,119.294058,-34.742587,-34.794058
820,48,0,95,84.500000,84.625000,119.294058,119.470529,-34.794058,-34.845529
821,72,0,127,84.500000,84.750000,119.294058,119.646999,-34.794058,-34.896999
822,67,0,127,84.500000,85.000000,119.294058,119.999940,-34.794058,-34.999940
823,50,0,95,84.750000,84.875000,119.646999,119.823470,-34.896999,-34.948470
824,72,0,127,84.750000,84.875000,119.646999,119.823470,-34.896999,-34.948470
825,48,0,95,84.875000,85.000000,119.823470,119.999940,-34.948470,-34.999940
826,79,0,127,84.875000,85.000000,119.823470,119.999940,-34.948470,-34.999940
827,67,0,127,85.000000,85.250000,119.999940,120.352881,-34.999940,-35.102881
828,74,0,127,85.000000,85.250000,119.999940,120.352881,-34.999940,-35.102881
829,48,0,95,85.125000,85.250000,120.176411,120.352881,-35.051411,-35.102881
830,52,0,95,85.250000,85.375000,120.352881,120.529352,-35.102881,-35.154352
831,64,0,127,85.250000,85.500000,120.352881,120.705822,-35.102881,-35.205822
832,72,0,127,85.250000,85.500000,120.352881,120.705822,-35.102881,-35.205822
833,55,0,95,85.375000,85.500000,120.529352,120.705822,-35.154352,-35.205822
834,48,0,95,85.500000,85.625000,120.705822,120.882293,-35.205822,-35.257293
835,67,0,127,85.500000,86.000000,120.705822,121.411704,-35.205822,-35.411704
836,72,0,127,85.500000,86.000000,120.705822,121.411704,-35.205822,-35.411704
837,50,0,95,85.750000,85.875000,121.058763,121.235234,-35.308763,-35.360234
838,48,0,95,85.875000,86.000000,121.235234,121.411704,-35.360234,-35.411704
839,74,0,127,86.000000,86.250000,121.411704,121.764645,-35.411704,-35.514645
840,67,0,127,86.000000,87.000000,121.411704,122.823468,-35.411704,-35.823468
841,72,0,127,86.052083,86.375000,121.485233,121.941115,-35.433150,-35.566115
842,48,0,95,86.250000,86.375000,121.764645,121.941115,-35.514645,-35.566115
843,72,0,127,86.250000,86.375000,121.764645,122.117586,-35.514645,-35.742586
844,72,0,127,86.375000,86.500000,121.941115,122.470527,-35.566115,-35.970527
845,55,0,95,86.375000,86.750000,121.941115,122.470527,-35.566115,-35.720527
846,60,0,95,86.375000,86.750000,121.941115,122.470527,-35.566115,-35.720527
847,72,0,127,86.500000,86.750000,122.117586,122.823468,-35.617586,-36.073468
848,74,0,127,86.750000,87.000000,122.470527,122.823468,-35.720527,-35.823468
849,48,0,95,86.875000,87.125000,122.646997,122.999938,-35.771997,-35.874938
850,72,0,127,87.000000,87.500000,122.823468,123.529350,-35.823468,-36.029350
851,60,0,127,87.000000,88.000000,122.823468,124.235232,-35.823468,-36.235232
852,64,0,127,87.000000,88.000000,122.823468,124.235232,-35.823468,-36.235232
853,74,0,127,87.500000,87.750000,123.529350,123.882291,-36.029350,-36.132291
854,48,0,95,87.750000,87.875000,123.882291,124.058762,-36.132291,-36.183762
855,72,0,127,87.750000,88.000000,123.882291,124.235232,-36.132291,-36.235232
856,50,0,95,87.875000,88.000000,124.058762,124.235232,-36.183762,-36.235232
857,79,0,127,88.000000,88.250000,124.235232,124.588173,-36.235232,-36.338173
858,72,0,127,88.000000,88.500000,124.235232,124.941114,-36.235232,-36.441114
859,67,0,127,88.000000,89.000000,124.235232,125.646996,-36.235232,-36.646996
860,48,0,95,88.250000,88.375000,124.588173,124.764644,-36.338173,-36.389644
861,72,0,127,88.250000,88.500000,124.588173,125.294055,-36.338173,-36.794055
862,55,0,95,88.375000,88.750000,124.764644,125.294055,-36.389644,-36.544055
863,60,0,95,88.375000,88.750000,124.764644,125.294055,-36.389644,-36.544055
864,72,0,127,88.500000,88.750000,124.941114,125.470525,-36.441114,-36.720525
865,72,0,127,88.750000,88.875000,125.294055,125.646996,-36.544055,-36.771996
866,79,0,127,88.875000,89.000000,125.470525,125.646996,-36.595525,-36.646996
867,74,0,127,89.000000,89.250000,125.646996,125.999937,-36.646996,-36.749937
868,62,0,127,89.000000,90.000000,125.646996,127.058760,-36.646996,-37.058760
869,67,0,127,89.000000,90.000000,125.646996,127.058760,-36.646996,-37.058760
870,72,0,127,89.250000,89.500000,125.999937,126.352878,-36.749937,-36.852878
871,55,0,95,89.250000,89.625000,125.999937,126.529348,-36.749937,-36.904348
872,60,0,95,89.250000,89.625000,125.999937,126.529348,-36.749937,-36.904348
873,67,0,127,89.500000,90.000000,126.352878,127.058760,-36.852878,-37.058760
874,72,0,127,89.500000,90.000000,126.352878,127.058760,-36.852878,-37.058760
875,48,0,95,89.625000,89.750000,126.529348,126.705819,-36.904348,-36.955819
876,52,0,95,89.750000,90.000000,126.705819,127.058760,-36.955819,-37.058760
877,55,0,95,89.750000,90.000000,126.705819,127.058760,-36.955819,-37.058760
878,60,0,95,89.750000,90.000000,126.705819,127.058760,-36.955819,-37.058760
879,74,0,127,90.000000,90.250000,127.058760,127.411701,-37.058760,-37.161701
880,62,0,127,90.000000,91.000000,127.058760,128.470524,-37.058760,-37.470524
881,67,0,127,90.000000,91.000000,127.058760,128.470524,-37.058760,-37.470524
882,50,0,95,90.250000,90.375000,127.411701,127.588172,-37.161701,-37.213172
883,72,0,127,90.250000,90.500000,127.411701,127.764642,-37.161701,-37.264642
884,55,0,95,90.375000,90.750000,127.588172,128.117583,-37.213172,-37.367583
885,60,0,95,90.375000,90.750000,127.588172,128.117583,-37.213172,-37.367583
886,72,0,127,90.500000,90.750000,127.764642,128.117583,-37.264642,-37.367583
887,79,0,127,90.750000,91.000000,128.117583,128.470524,-37.367583,-37.470524
888,76,0,127,91.000000,91.500000,128.470524,129.176406,-37.470524,-37.676406
889,48,0,95,91.000000,92.000000,128.470524,129.882288,-37.470524,-37.882288
890,67,0,127,91.000000,92.000000,128.470524,129.882288,-37.470524,-37.882288
891,55,0,95,91.250000,91.750000,128.823465,129.529347,-37.573465,-37.779347
892,60,0,95,91.250000,91.750000,128.823465,129.529347,-37.573465,-37.779347
893,60,0,127,91.500000,91.750000,129.176406,129.529347,-37.676406,-37.779347
894,72,0,127,91.500000,91.750000,129.176406,129.529347,-37.676406,-37.779347
895,67,0,127,91.750000,92.000000,129.529347,129.882288,-37.779347,-37.882288
896,79,0,127,91.750000,92.000000,129.529347,129.882288,-37.779347,-37.882288
897,67,0,127,92.000000,92.250000,129.882288,130.235229,-37.882288,-37.985229
898,76,0,127,92.000000,92.250000,129.882288,130.235229,-37.882288,-37.985229
899,79,0,127,92.000000,92.250000,129.882288,130.235229,-37.882288,-37.985229
900,48,0,95,92.250000,92.375000,130.235229,130.411699,-37.985229,-38.036699
901,72,0,127,92.250000,92.500000,130.235229,130.588170,-37.985229,-38.088170
902,55,0,95,92.375000,92.750000,130.411699,130.941111,-38.036699,-38.191111
903,60,0,95,92.375000,92.750000,130.411699,130.941111,-38.036699,-38.191111
904,72,0,127,92.500000,92.750000,130.588170,130.941111,-38.088170,-38.191111
905,72,0,127,92.750000,92.875000,130.941111,131.117582,-38.191111,-38.242582
906,67,0,127,92.875000,93.000000,131.117582,131.294052,-38.242582,-38.294052
907,79,0,127,92.875000,93.000000,131.117582,131.294052,-38.242582,-38.294052
908,67,0,127,93.000000,93.250000,131.294052,131.646993,-38.294052,-38.396993
909,74,0,127,93.000000,93.250000,131.294052,131.646993,-38.294052,-38.396993
910,72,0,127,93.250000,93.500000,131.646993,131.999934,-38.396993,-38.499934
911,55,0,95,93.250000,93.625000,131.646993,132.176404,-38.396993,-38.551404
912,60,0,95,93.250000,93.625000,131.646993,132.176404,-38.396993,-38.551404
913,64,0,127,93.500000,94.000000,131.999934,132.705816,-38.499934,-38.705816
914,67,0,127,93.500000,94.000000,131.999934,132.705816,-38.499934,-38.705816
915,72,0,127,93.500000,94.000000,131.999934,132.705816,-38.499934,-38.705816
916,48,0,95,93.625000,93.750000,132.176404,132.352875,-38.551404,-38.602875
917,52,0,95,93.750000,94.000000,132.352875,132.705816,-38.602875,-38.705816
918,55,0,95,93.750000,94.000000,132.352875,132.705816,-38.602875,-38.705816
919,60,0,95,93.750000,94.000000,132.352875,132.705816,-38.602875,-38.705816
920,62,0,127,94.000000,94.250000,132.705816,133.058757,-38.705816,-38.808757
921,67,0,127,94.000000,94.250000,132.705816,133.058757,-38.705816,-38.808757
922,74,0,127,94.000000,94.250000,132.705816,133.058757,-38.705816,-38.808757
923,50,0,95,94.250000,94.375000,133.058757,133.235228,-38.808757,-38.860228
924,72,0,127,94.250000,94.375000,133.058757,133.235228,-38.808757,-38.860228
925,72,0,127,94.375000,94.500000,133.235228,133.411698,-38.860228,-38.911698
926,55,0,95,94.375000,94.750000,133.235228,133.764639,-38.860228,-39.014639
927,60,0,95,94.375000,94.750000,133.235228,133.764639,-38.860228,-39.014639
928,65,0,127,94.500000,94.750000,133.411698,133.764639,-38.911698,-39.014639
929,67,0,127,94.500000,94.750000,133.411698,133.764639,-38.911698,-39.014639
930,72,0,127,94.500000,94.750000,133.411698,133.764639,-38.911698,-39.014639
931,62,0,127,94.750000,95.000000,133.764639,134.117580,-39.014639,-39.117580
932,74,0,127,94.750000,95.000000,133.764639,134.117580,-39.014639,-39.117580
933,60,0,95,95.000000,95.500000,134.117580,134.823462,-39.117580,-39.323462
934,64,0,95,95.000000,95.625000,134.117580,134.999932,-39.117580,-39.374932
935,52,0,95,95.000000,96.000000,134.117580,135.529344,-39.117580,-39.529344
936,67,0,127,95.000000,96.000000,134.117580,135.529344,-39.117580,-39.529344
937,72,0,127,95.000000,96.000000,134.117580,135.529344,-39.117580,-39.529344
938,60,0,95,95.250000,95.500000,134.470521,135.352873,-39.220521,-39.852873
939,62,0,95,95.500000,95.562500,134.823462,134.911697,-39.323462,-39.349197
940,64,0,95,95.562500,95.625000,134.911697,135.529344,-39.349197,-39.904344
941,62,0,95,95.625000,95.750000,134.999932,135.176403,-39.374932,-39.426403
942,60,0,95,95.750000,95.875000,135.176403,135.529344,-39.426403,-39.654344
943,59,0,95,95.875000,96.000000,135.352873,135.529344,-39.477873,-39.529344
944,72,0,127,96.000000,96.250000,135.529344,135.882285,-39.529344,-39.632285
945,57,0,95,96.000000,97.000000,135.529344,136.941108,-39.529344,-39.941108
946,60,0,95,96.250000,96.500000,135.882285,136.235226,-39.632285,-39.735226
947,79,0,127,96.250000,96.500000,135.882285,136.235226,-39.632285,-39.735226
948,60,0,95,96.500000,96.750000,136.235226,136.588167,-39.735226,-39.838167
949,79,0,127,96.500000,96.750000,136.235226,136.588167,-39.735226,-39.838167
950,60,0,95,96.750000,96.875000,136.588167,136.764637,-39.838167,-39.889637
951,74,0,127,96.750000,96.875000,136.588167,136.764637,-39.838167,-39.889637
952,67,0,95,96.875000,97.000000,136.764637,136.941108,-39.889637,-39.941108
953,72,0,127,96.875000,97.000000,136.764637,136.941108,-39.889637,-39.941108
954,62,0,95,97.000000,97.250000,136.941108,137.294049,-39.941108,-40.044049
955,72,0,127,97.000000,97.250000,136.941108,137.294049,-39.941108,-40.044049
956,53,0,95,97.000000,98.000000,136.941108,138.352872,-39.941108,-40.352872
957,60,0,95,97.250000,97.500000,137.294049,137.646990,-40.044049,-40.146990
958,79,0,127,97.250000,97.500000,137.294049,137.646990,-40.044049,-40.146990
959,79,0,127,97.500000,97.750000,137.646990,137.999931,-40.146990,-40.249931
960,60,0,95,97.500000,98.000000,137.646990,138.352872,-40.146990,-40.352872
961,74,0,127,97.750000,97.875000,137.999931,138.176401,-40.249931,-40.301401
962,72,0,127,97.875000,98.000000,138.176401,138.352872,-40.301401,-40.352872
963,72,0,127,98.000000,98.250000,138.352872,138.705813,-40.352872,-40.455813
964,55,0,95,98.000000,99.000000,138.352872,139.764636,-40.352872,-40.764636
965,74,0,127,98.250000,98.375000,138.705813,138.882283,-40.455813,-40.507283
966,60,0,95,98.250000,98.500000,138.705813,139.058754,-40.455813,-40.558754
967,72,0,127,98.375000,98.500000,138.882283,139.058754,-40.507283,-40.558754
968,60,0,95,98.500000,98.750000,139.058754,139.411695,-40.558754,-40.661695
969,72,0,127,98.500000,98.750000,139.058754,139.411695,-40.558754,-40.661695
970,62,0,95,98.750000,98.875000,139.411695,139.588166,-40.661695,-40.713166
971,74,0,127,98.750000,98.875000,139.411695,139.588166,-40.661695,-40.713166
972,64,0,95,98.875000,99.000000,139.588166,139.764636,-40.713166,-40.764636
973,72,0,127,98.875000,99.000000,139.588166,139.764636,-40.713166,-40.764636
974,72,0,127,99.000000,99.250000,139.764636,140.117577,-40.764636,-40.867577
975,64,0,95,99.000000,99.500000,139.764636,140.470518,-40.764636,-40.970518
976,60,0,95,99.000000,99.750000,139.764636,140.823459,-40.764636,-41.073459
977,74,0,127,99.250000,99.500000,140.117577,140.470518,-40.867577,-40.970518
978,60,0,95,99.500000,99.750000,140.470518,141.176400,-40.970518,-41.426400
979,79,0,127,99.750000,99.875000,140.823459,140.999930,-41.073459,-41.124930
980,67,0,95,99.750000,100.000000,140.823459,141.176400,-41.073459,-41.176400
981,72,0,127,100.000000,100.250000,141.176400,141.529341,-41.176400,-41.279341
982,57,0,95,100.000000,101.000000,141.176400,142.588164,-41.176400,-41.588164
983,60,0,95,100.250000,100.500000,141.529341,141.882282,-41.279341,-41.382282
984,74,0,127,100.250000,100.500000,141.529341,141.882282,-41.279341,-41.382282
985,60,0,95,100.500000,100.750000,141.882282,142.235223,-41.382282,-41.485223
986,74,0,127,100.500000,100.750000,141.882282,142.235223,-41.382282,-41.485223
987,62,0,95,100.750000,100.875000,142.235223,142.411694,-41.485223,-41.536694
988,72,0,127,100.750000,100.875000,142.235223,142.411694,-41.485223,-41.536694
989,67,0,95,100.875000,101.000000,142.411694,142.588164,-41.536694,-41.588164
990,83,0,127,100.875000,101.000000,142.411694,142.588164,-41.536694,-41.588164
991,62,0,95,101.000000,101.250000,142.588164,142.941105,-41.588164,-41.691105
992,53,0,95,101.000000,102.000000,142.588164,143.999928,-41.588164,-41.999928
993,60,0,95,101.250000,101.500000,142.941105,143.294046,-41.691105,-41.794046
994,60,0,95,101.500000,102.000000,143.294046,143.999928,-41.794046,-41.999928
995,83,0,127,101.625000,101.750000,143.470517,143.646987,-41.845517,-41.896987
996,79,0,127,101.750000,101.875000,143.646987,143.823457,-41.896987,-41.948457
997,74,0,127,101.875000,102.000000,143.823457,143.999928,-41.948457,-41.999928
998,74,0,127,102.000000,102.250000,143.999928,144.352869,-41.999928,-42.102869
999,55,0,95,102.000000,103.000000,143.999928,145.411692,-41.999928,-42.411692
1000,60,0,95,102.250000,102.500000,144.352869,144.705810,-42.102869,-42.205810
1001,76,0,127,102.250000,102.500000,144.352869,144.705810,-42.102869,-42.205810
1002,60,0,95,102.500000,102.750000,144.705810,145.058751,-42.205810,-42.308751
1003,74,0,127,102.500000,102.750000,144.705810,145.058751,-42.205810,-42.308751
1004,74,0,127,102.750000,102.875000,145.058751,145.235221,-42.308751,-42.360221
1005,62,0,95,102.750000,103.000000,145.058751,145.411692,-42.308751,-42.411692
1006,72,0,127,102.875000,103.000000,145.235221,145.411692,-42.360221,-42.411692
1007,72,0,127,103.000000,103.125000,145.411692,145.588163,-42.411692,-42.463163
1008,60,0,95,103.000000,103.500000,145.411692,146.117574,-42.411692,-42.617574
1009,48,0,95,103.000000,104.000000,145.411692,146.823456,-42.411692,-42.823456
1010,55,0,95,103.000000,104.000000,145.411692,146.823456,-42.411692,-42.823456
1011,79,0,127,103.125000,103.250000,145.588163,145.764633,-42.463163,-42.514633
1012,60,0,95,103.500000,103.750000,146.117574,146.470515,-42.617574,-42.720515
1013,67,0,95,103.750000,104.000000,146.470515,146.823456,-42.720515,-42.823456
1014,72,0,127,103.750000,104.000000,146.470515,146.823456,-42.720515,-42.823456
1015,69,0,127,104.000000,104.250000,146.823456,147.176397,-42.823456,-42.926397
1016,81,0,127,104.000000,104.250000,146.823456,147.176397,-42.823456,-42.926397
1017,57,0,95,104.000000,105.000000,146.823456,148.235220,-42.823456,-43.235220
1018,60,0,95,104.250000,104.500000,147.176397,147.529338,-42.926397,-43.029338
1019,79,0,127,104.250000,104.500000,147.176397,147.529338,-42.926397,-43.029338
1020,60,0,95,104.500000,104.750000,147.529338,147.882279,-43.029338,-43.132279
1021,79,0,127,104.500000,104.750000,147.529338,147.882279,-43.029338,-43.132279
1022,62,0,95,104.750000,104.875000,147.882279,148.058750,-43.132279,-43.183750
1023,74,0,127,104.750000,104.875000,147.882279,148.058750,-43.132279,-43.183750
1024,67,0,95,104.875000,105.000000,148.058750,148.235220,-43.183750,-43.235220
1025,72,0,127,104.875000,105.000000,148.058750,148.235220,-43.183750,-43.235220
1026,62,0,95,105.000000,105.250000,148.235220,148.588161,-43.235220,-43.338161
1027,67,0,127,105.000000,105.250000,148.235220,148.588161,-43.235220,-43.338161
1028,79,0,127,105.000000,105.250000,148.235220,148.588161,-43.235220,-43.338161
1029,53,0,95,105.000000,106.000000,148.235220,149.646984,-43.235220,-43.646984
1030,60,0,95,105.250000,105.500000,148.588161,148.941102,-43.338161,-43.441102
1031,79,0,127,105.250000,105.500000,148.588161,148.941102,-43.338161,-43.441102
1032,79,0,127,105.500000,105.750000,148.941102,149.294043,-43.441102,-43.544043
1033,60,0,95,105.500000,106.000000,148.941102,149.646984,-43.441102,-43.646984
1034,79,0,127,105.750000,105.875000,149.294043,149.470514,-43.544043,-43.595514
1035,76,0,127,105.875000,106.000000,149.470514,149.646984,-43.595514,-43.646984
1036,74,0,127,106.000000,106.125000,149.646984,149.823454,-43.646984,-43.698454
1037,55,0,95,106.000000,107.000000,149.646984,151.058748,-43.646984,-44.058748
1038,79,0,127,106.125000,106.250000,149.823454,149.999925,-43.698454,-43.749925
1039,60,0,95,106.250000,106.500000,149.999925,150.352866,-43.749925,-43.852866
1040,60,0,95,106.500000,106.750000,150.352866,150.705807,-43.852866,-43.955807
1041,79,0,127,106.625000,106.750000,150.529336,150.705807,-43.904336,-43.955807
1042,62,0,95,106.750000,106.875000,150.705807,150.882277,-43.955807,-44.007277
1043,64,0,95,106.875000,107.000000,150.882277,151.058748,-44.007277,-44.058748
1044,64,0,95,107.000000,107.500000,151.058748,151.764630,-44.058748,-44.264630
1045,60,0,95,107.000000,107.750000,151.058748,152.117571,-44.058748,-44.367571
1046,79,0,127,107.125000,107.250000,151.235219,151.411689,-44.110219,-44.161689
1047,60,0,95,107.500000,107.750000,151.764630,152.470512,-44.264630,-44.720512
1048,79,0,127,107.750000,107.875000,152.117571,152.294041,-44.367571,-44.419041
1049,67,0,95,107.750000,108.000000,152.117571,152.470512,-44.367571,-44.470512
1050,74,0,127,108.000000,108.125000,152.470512,152.646983,-44.470512,-44.521983
1051,57,0,95,108.000000,109.000000,152.470512,153.882276,-44.470512,-44.882276
1052,79,0,127,108.125000,108.250000,152.646983,152.823453,-44.521983,-44.573453
1053,60,0,95,108.250000,108.500000,152.823453,153.176394,-44.573453,-44.676394
1054,79,0,127,108.375000,108.500000,152.999923,153.176394,-44.624923,-44.676394
1055,60,0,95,108.500000,108.750000,153.176394,153.529335,-44.676394,-44.779335
1056,79,0,127,108.625000,108.750000,153.352865,153.529335,-44.727865,-44.779335
1057,62,0,95,108.750000,108.875000,153.529335,153.705805,-44.779335,-44.830805
1058,67,0,95,108.875000,109.000000,153.705805,153.882276,-44.830805,-44.882276
1059,79,0,127,108.875000,109.000000,153.705805,153.882276,-44.830805,-44.882276
1060,62,0,95,109.000000,109.250000,153.882276,154.235217,-44.882276,-44.985217
1061,53,0,95,109.000000,110.000000,153.882276,155.294040,-44.882276,-45.294040
1062,79,0,127,109.250000,109.375000,154.235217,154.411687,-44.985217,-45.036687
1063,60,0,95,109.250000,109.500000,154.235217,154.588158,-44.985217,-45.088158
1064,74,0,127,109.375000,109.500000,154.411687,154.588158,-45.036687,-45.088158
1065,72,0,127,109.500000,109.625000,154.588158,154.764628,-45.088158,-45.139628
1066,60,0,95,109.500000,110.000000,154.588158,155.294040,-45.088158,-45.294040
1067,77,0,127,109.625000,109.750000,154.764628,154.941099,-45.139628,-45.191099
1068,79,0,127,109.750000,109.875000,154.941099,155.117570,-45.191099,-45.242570
1069,74,0,127,110.000000,110.250000,155.294040,155.646981,-45.294040,-45.396981
1070,55,0,95,110.000000,111.000000,155.294040,156.705804,-45.294040,-45.705804
1071,60,0,95,110.250000,110.500000,155.646981,155.999922,-45.396981,-45.499922
1072,72,0,127,110.250000,110.500000,155.646981,155.999922,-45.396981,-45.499922
1073,60,0,95,110.500000,110.750000,155.999922,156.352863,-45.499922,-45.602863
1074,72,0,127,110.500000,110.750000,155.999922,156.352863,-45.499922,-45.602863
1075,62,0,95,110.750000,111.000000,156.352863,156.705804,-45.602863,-45.705804
1076,74,0,127,110.750000,111.000000,156.352863,156.705804,-45.602863,-45.705804
1077,60,0,95,111.000000,111.500000,156.705804,157.411686,-45.705804,-45.911686
1078,48,0,95,111.000000,112.000000,156.705804,158.117568,-45.705804,-46.117568
1079,55,0,95,111.000000,112.000000,156.705804,158.117568,-45.705804,-46.117568
1080,79,0,127,111.125000,111.250000,156.882274,157.058745,-45.757274,-45.808745
1081,62,0,95,111.500000,111.750000,157.411686,157.764627,-45.911686,-46.014627
1082,83,0,127,111.625000,111.750000,157.588156,157.764627,-45.963156,-46.014627
1083,79,0,127,111.750000,111.875000,157.764627,157.941098,-46.014627,-46.066098
1084,60,0,95,111.750000,112.000000,157.764627,158.117568,-46.014627,-46.117568
1085,74,0,127,111.875000,112.000000,157.941098,158.117568,-46.066098,-46.117568
1086,72,0,127,112.000000,112.125000,158.117568,158.294038,-46.117568,-46.169038
1087,67,0,95,112.000000,112.250000,158.117568,158.470509,-46.117568,-46.220509
1088,60,0,95,112.000000,112.500000,158.117568,158.823450,-46.117568,-46.323450
1089,55,0,95,112.000000,113.000000,158.117568,159.529332,-46.117568,-46.529332
1090,67,0,127,112.125000,112.250000,158.294038,158.470509,-46.169038,-46.220509
1091,76,0,127,112.250000,112.375000,158.470509,158.646979,-46.220509,-46.271979
1092,60,0,95,112.250000,112.500000,158.470509,159.176391,-46.220509,-46.676391
1093,79,0,127,112.375000,112.500000,158.646979,158.823450,-46.271979,-46.323450
1094,74,0,127,112.500000,112.625000,158.823450,158.999921,-46.323450,-46.374921
1095,60,0,95,112.500000,112.750000,158.823450,159.352861,-46.323450,-46.602861
1096,72,0,127,112.625000,112.750000,158.999921,159.176391,-46.374921,-46.426391
1097,60,0,95,112.750000,112.875000,159.176391,159.352861,-46.426391,-46.477861
1098,67,0,127,112.750000,112.875000,159.176391,159.529332,-46.426391,-46.654332
1099,67,0,95,112.875000,113.000000,159.352861,159.529332,-46.477861,-46.529332
1100,71,0,127,112.875000,113.000000,159.352861,159.529332,-46.477861,-46.529332
1101,72,0,127,113.000000,113.125000,159.529332,159.705803,-46.529332,-46.580803
1102,62,0,95,113.000000,113.250000,159.529332,159.882273,-46.529332,-46.632273
1103,52,0,95,113.000000,114.000000,159.529332,160.941096,-46.529332,-46.941096
1104,55,0,95,113.000000,114.000000,159.529332,160.941096,-46.529332,-46.941096
1105,67,0,127,113.125000,113.250000,159.705803,159.882273,-46.580803,-46.632273
1106,76,0,127,113.250000,113.375000,159.882273,160.058743,-46.632273,-46.683743
1107,60,0,95,113.250000,113.500000,159.882273,160.235214,-46.632273,-46.735214
1108,79,0,127,113.375000,113.500000,160.058743,160.235214,-46.683743,-46.735214
1109,74,0,127,113.500000,113.625000,160.235214,160.411685,-46.735214,-46.786685
1110,60,0,95,113.500000,114.000000,160.235214,160.941096,-46.735214,-46.941096
1111,67,0,127,113.625000,113.750000,160.411685,160.588155,-46.786685,-46.838155
1112,71,0,127,113.750000,113.875000,160.588155,160.764625,-46.838155,-46.889625
1113,72,0,127,113.875000,114.000000,160.764625,160.941096,-46.889625,-46.941096
1114,79,0,127,114.000000,114.125000,160.941096,161.117567,-46.941096,-46.992567
1115,62,0,95,114.000000,114.250000,160.941096,161.294037,-46.941096,-47.044037
1116,55,0,95,114.000000,115.000000,160.941096,162.352860,-46.941096,-47.352860
1117,67,0,127,114.125000,114.250000,161.117567,161.294037,-46.992567,-47.044037
1118,60,0,95,114.250000,114.375000,161.294037,161.470507,-47.044037,-47.095507
1119,76,0,127,114.250000,114.375000,161.294037,161.470507,-47.044037,-47.095507
1120,60,0,95,114.375000,114.500000,161.470507,161.646978,-47.095507,-47.146978
1121,79,0,127,114.375000,114.500000,161.470507,161.646978,-47.095507,-47.146978
1122,74,0,127,114.500000,114.625000,161.646978,161.823449,-47.146978,-47.198449
1123,60,0,95,114.500000,114.750000,161.646978,161.999919,-47.146978,-47.249919
1124,72,0,127,114.625000,114.750000,161.823449,161.999919,-47.198449,-47.249919
1125,67,0,95,114.750000,114.875000,161.999919,162.176389,-47.249919,-47.301389
1126,67,0,127,114.750000,114.875000,161.999919,162.352860,-47.249919,-47.477860
1127,72,0,127,114.875000,115.000000,162.176389,162.352860,-47.301389,-47.352860
1128,76,0,127,115.000000,115.125000,162.352860,162.529330,-47.352860,-47.404330
1129,64,0,95,115.000000,115.500000,162.352860,163.058742,-47.352860,-47.558742
1130,60,0,95,115.000000,115.750000,162.352860,163.411683,-47.352860,-47.661683
1131,67,0,127,115.125000,115.250000,162.529330,162.705801,-47.404330,-47.455801
1132,72,0,127,115.250000,115.375000,162.705801,162.882272,-47.455801,-47.507272
1133,76,0,127,115.375000,115.500000,162.882272,163.058742,-47.507272,-47.558742
1134,74,0,127,115.500000,115.625000,163.058742,163.235212,-47.558742,-47.610212
1135,60,0,95,115.500000,115.750000,163.058742,163.764624,-47.558742,-48.014624
1136,67,0,127,115.625000,115.750000,163.235212,163.411683,-47.610212,-47.661683
1137,72,0,127,115.750000,115.875000,163.411683,163.588154,-47.661683,-47.713154
1138,67,0,95,115.750000,116.000000,163.411683,163.764624,-47.661683,-47.764624
1139,74,0,127,115.875000,116.000000,163.588154,163.764624,-47.713154,-47.764624
1140,72,0,127,116.000000,116.125000,163.764624,163.941094,-47.764624,-47.816094
1141,67,0,95,116.000000,116.250000,163.764624,164.117565,-47.764624,-47.867565
1142,60,0,95,116.000000,116.500000,163.764624,164.470506,-47.764624,-47.970506
1143,55,0,95,116.000000,117.000000,163.764624,165.176388,-47.764624,-48.176388
1144,67,0,127,116.125000,116.250000,163.941094,164.117565,-47.816094,-47.867565
1145,74,0,127,116.250000,116.375000,164.117565,164.294036,-47.867565,-47.919036
1146,60,0,95,116.250000,116.500000,164.117565,164.823447,-47.867565,-48.323447
1147,67,0,127,116.375000,116.500000,164.294036,164.470506,-47.919036,-47.970506
1148,74,0,127,116.500000,116.625000,164.470506,164.646976,-47.970506,-48.021976
1149,60,0,95,116.500000,116.750000,164.470506,164.999918,-47.970506,-48.249918
1150,67,0,127,116.625000,116.750000,164.646976,164.823447,-48.021976,-48.073447
1151,60,0,95,116.750000,116.875000,164.823447,164.999918,-48.073447,-48.124918
1152,72,0,127,116.750000,116.875000,164.823447,165.176388,-48.073447,-48.301388
1153,67,0,95,116.875000,117.000000,164.999918,165.176388,-48.124918,-48.176388
1154,71,0,127,116.875000,117.000000,164.999918,165.176388,-48.124918,-48.176388
1155,72,0,127,117.000000,117.125000,165.176388,165.352858,-48.176388,-48.227858
1156,62,0,95,117.000000,117.250000,165.176388,165.529329,-48.176388,-48.279329
1157,50,0,95,117.000000,118.000000,165.176388,166.588152,-48.176388,-48.588152
1158,55,0,95,117.000000,118.000000,165.176388,166.588152,-48.176388,-48.588152
1159,83,0,127,117.125000,117.250000,165.352858,165.529329,-48.227858,-48.279329
1160,79,0,127,117.250000,117.375000,165.529329,165.705800,-48.279329,-48.330800
1161,60,0,95,117.250000,117.500000,165.529329,165.882270,-48.279329,-48.382270
1162,74,0,127,117.375000,117.500000,165.705800,165.882270,-48.330800,-48.382270
1163,72,0,127,117.500000,117.625000,165.882270,166.058740,-48.382270,-48.433740
1164,60,0,95,117.500000,118.000000,165.882270,166.588152,-48.382270,-48.588152
1165,71,0,127,117.625000,117.750000,166.058740,166.235211,-48.433740,-48.485211
1166,67,0,127,117.750000,117.875000,166.235211,166.411681,-48.485211,-48.536681
1167,64,0,127,117.875000,118.000000,166.411681,166.588152,-48.536681,-48.588152
1168,62,0,127,118.000000,118.250000,166.588152,166.941093,-48.588152,-48.691093
1169,48,0,95,118.125000,118.250000,166.764623,166.941093,-48.639623,-48.691093
1170,50,0,95,118.250000,118.375000,166.941093,167.117563,-48.691093,-48.742563
1171,60,0,127,118.250000,118.375000,166.941093,167.117563,-48.691093,-48.742563
1172,52,0,95,118.375000,118.500000,167.117563,167.294034,-48.742563,-48.794034
1173,60,0,127,118.375000,118.500000,167.117563,167.294034,-48.742563,-48.794034
1174,50,0,95,118.500000,118.625000,167.294034,167.470505,-48.794034,-48.845505
1175,60,0,127,118.500000,118.750000,167.294034,167.646975,-48.794034,-48.896975
1176,48,0,95,118.625000,118.750000,167.470505,167.646975,-48.845505,-48.896975
1177,62,0,127,118.750000,119.000000,167.646975,167.999916,-48.896975,-48.999916
1178,48,0,95,118.875000,119.000000,167.823445,167.999916,-48.948445,-48.999916
1179,52,0,127,119.000000,119.500000,167.999916,168.705798,-48.999916,-49.205798
1180,55,0,127,119.000000,119.500000,167.999916,168.705798,-48.999916,-49.205798
1181,60,0,127,119.000000,119.500000,167.999916,168.705798,-48.999916,-49.205798
1182,48,0,95,119.000000,120.000000,167.999916,169.411680,-48.999916,-49.411680
1183,74,0,127,119.500000,119.750000,168.705798,169.058739,-49.205798,-49.308739
1184,48,0,95,119.750000,120.000000,169.058739,169.411680,-49.308739,-49.411680
1185,72,0,127,119.750000,120.000000,169.058739,169.411680,-49.308739,-49.411680
1186,79,0,127,120.000000,120.250000,169.411680,169.764621,-49.411680,-49.514621
1187,72,0,127,120.000000,120.500000,169.411680,170.117562,-49.411680,-49.617562
1188,67,0,127,120.000000,121.000000,169.411680,170.823444,-49.411680,-49.823444
1189,48,0,95,120.250000,120.375000,169.764621,169.941091,-49.514621,-49.566091
1190,72,0,127,120.250000,120.500000,169.764621,170.470503,-49.514621,-49.970503
1191,55,0,95,120.375000,120.625000,169.941091,170.294032,-49.566091,-49.669032
1192,60,0,95,120.375000,120.625000,169.941091,170.294032,-49.566091,-49.669032
1193,72,0,127,120.500000,120.750000,170.117562,170.646974,-49.617562,-49.896974
1194,72,0,127,120.750000,120.875000,170.470503,170.823444,-49.720503,-49.948444
1195,48,0,95,120.750000,121.000000,170.470503,170.823444,-49.720503,-49.823444
1196,79,0,127,120.875000,121.000000,170.646974,170.823444,-49.771974,-49.823444
1197,74,0,127,121.000000,121.250000,170.823444,171.176385,-49.823444,-49.926385
1198,62,0,127,121.000000,122.000000,170.823444,172.235208,-49.823444,-50.235208
1199,67,0,127,121.000000,122.000000,170.823444,172.235208,-49.823444,-50.235208
1200,55,0,95,121.250000,121.500000,171.176385,171.529326,-49.926385,-50.029326
1201,60,0,95,121.250000,121.500000,171.176385,171.529326,-49.926385,-50.029326
1202,72,0,127,121.250000,121.500000,171.176385,171.529326,-49.926385,-50.029326
1203,48,0,95,121.500000,121.750000,171.529326,171.882267,-50.029326,-50.132267
1204,67,0,127,121.500000,122.000000,171.529326,172.235208,-50.029326,-50.235208
1205,72,0,127,121.500000,122.000000,171.529326,172.235208,-50.029326,-50.235208
1206,50,0,95,121.750000,122.000000,171.882267,172.235208,-50.132267,-50.235208
1207,74,0,127,122.000000,122.250000,172.235208,172.588149,-50.235208,-50.338149
1208,62,0,127,122.000000,123.000000,172.235208,173.646972,-50.235208,-50.646972
1209,67,0,127,122.000000,123.000000,172.235208,173.646972,-50.235208,-50.646972
1210,50,0,95,122.250000,122.375000,172.588149,172.764620,-50.338149,-50.389620
1211,72,0,127,122.250000,122.500000,172.588149,172.941090,-50.338149,-50.441090
1212,55,0,95,122.375000,122.625000,172.764620,173.117560,-50.389620,-50.492560
1213,60,0,95,122.375000,122.625000,172.764620,173.117560,-50.389620,-50.492560
1214,72,0,127,122.500000,122.750000,172.941090,173.294031,-50.441090,-50.544031
1215,50,0,95,122.750000,123.000000,173.294031,173.646972,-50.544031,-50.646972
1216,79,0,127,122.750000,123.000000,173.294031,173.646972,-50.544031,-50.646972
1217,48,0,95,123.000000,123.500000,173.646972,174.352854,-50.646972,-50.852854
1218,76,0,127,123.000000,123.500000,173.646972,174.352854,-50.646972,-50.852854
1219,67,0,127,123.000000,124.000000,173.646972,175.058736,-50.646972,-51.058736
1220,55,0,95,123.250000,123.500000,173.999913,174.352854,-50.749913,-50.852854
1221,60,0,95,123.250000,123.500000,173.999913,174.352854,-50.749913,-50.852854
1222,60,0,127,123.500000,123.750000,174.352854,174.705795,-50.852854,-50.955795
1223,72,0,127,123.500000,123.750000,174.352854,174.705795,-50.852854,-50.955795
1224,55,0,95,123.750000,124.000000,174.705795,175.058736,-50.955795,-51.058736
1225,59,0,95,123.750000,124.000000,174.705795,175.058736,-50.955795,-51.058736
1226,67,0,127,123.750000,124.000000,174.705795,175.058736,-50.955795,-51.058736
1227,79,0,127,123.750000,124.000000,174.705795,175.058736,-50.955795,-51.058736
1228,67,0,127,124.000000,124.250000,175.058736,175.411677,-51.058736,-51.161677
1229,76,0,127,124.000000,124.250000,175.058736,175.411677,-51.058736,-51.161677
1230,79,0,127,124.000000,124.250000,175.058736,175.411677,-51.058736,-51.161677
1231,48,0,95,124.250000,124.375000,175.411677,175.588147,-51.161677,-51.213147
1232,72,0,127,124.250000,124.500000,175.411677,175.764618,-51.161677,-51.264618
1233,55,0,95,124.375000,124.625000,175.588147,175.941089,-51.213147,-51.316089
1234,60,0,95,124.375000,124.625000,175.588147,175.941089,-51.213147,-51.316089
1235,72,0,127,124.500000,124.750000,175.764618,176.117559,-51.264618,-51.367559
1236,72,0,127,124.750000,124.875000,176.117559,176.294029,-51.367559,-51.419029
1237,48,0,95,124.750000,125.000000,176.117559,176.470500,-51.367559,-51.470500
1238,67,0,127,124.875000,125.000000,176.294029,176.470500,-51.419029,-51.470500
1239,79,0,127,124.875000,125.000000,176.294029,176.470500,-51.419029,-51.470500
1240,67,0,127,125.000000,125.250000,176.470500,176.823441,-51.470500,-51.573441
1241,74,0,127,125.000000,125.250000,176.470500,176.823441,-51.470500,-51.573441
1242,55,0,95,125.250000,125.500000,176.823441,177.176382,-51.573441,-51.676382
1243,60,0,95,125.250000,125.500000,176.823441,177.176382,-51.573441,-51.676382
1244,72,0,127,125.250000,125.500000,176.823441,177.176382,-51.573441,-51.676382
1245,48,0,95,125.500000,125.750000,177.176382,177.529323,-51.676382,-51.779323
1246,64,0,127,125.500000,126.000000,177.176382,177.882264,-51.676382,-51.882264
1247,67,0,127,125.500000,126.000000,177.176382,177.882264,-51.676382,-51.882264
1248,72,0,127,125.500000,126.000000,177.176382,177.882264,-51.676382,-51.882264
1249,50,0,95,125.750000,126.000000,177.529323,177.882264,-51.779323,-51.882264
1250,62,0,127,126.000000,126.250000,177.882264,178.235205,-51.882264,-51.985205
1251,67,0,127,126.000000,126.250000,177.882264,178.235205,-51.882264,-51.985205
1252,74,0,127,126.000000,126.250000,177.882264,178.235205,-51.882264,-51.985205
1253,50,0,95,126.125000,126.250000,178.058735,178.235205,-51.933735,-51.985205
1254,55,0,95,126.250000,126.375000,178.235205,178.411676,-51.985205,-52.036676
1255,72,0,127,126.250000,126.375000,178.235205,178.411676,-51.985205,-52.036676
1256,60,0,95,126.375000,126.500000,178.411676,178.588146,-52.036676,-52.088146
1257,72,0,127,126.375000,126.500000,178.411676,178.588146,-52.036676,-52.088146
1258,55,0,95,126.500000,126.625000,178.588146,178.764616,-52.088146,-52.139616
1259,65,0,127,126.500000,126.750000,178.588146,178.941087,-52.088146,-52.191087
1260,67,0,127,126.500000,126.750000,178.588146,178.941087,-52.088146,-52.191087
1261,72,0,127,126.500000,126.750000,178.588146,178.941087,-52.088146,-52.191087
1262,50,0,95,126.625000,126.750000,178.764616,178.941087,-52.139616,-52.191087
1263,48,0,95,126.750000,126.875000,178.941087,179.117558,-52.191087,-52.242558
1264,62,0,127,126.750000,127.000000,178.941087,179.294028,-52.191087,-52.294028
1265,74,0,127,126.750000,127.000000,178.941087,179.294028,-52.191087,-52.294028
1266,48,0,95,127.000000,128.494792,179.294028,181.404321,-52.294028,-52.909529
1267,60,0,127,127.000000,128.494792,179.294028,181.404321,-52.294028,-52.909529
1268,64,0,127,127.000000,128.494792,179.294028,181.404321,-52.294028,-52.909529
1269,67,0,127,127.000000,128.494792,179.294028,181.404321,-52.294028,-52.909529
1270,72,0,127,127.000000,128.494792,179.294028,181.404321,-52.294028,-52.909529
